<svg width="692" height="321" viewBox="0 0 692 321" fill="none" xmlns="http://www.w3.org/2000/svg">
<rect width="692" height="321" fill="white"/>
<rect x="60" y="49" width="10" height="10" fill="#003262"/>
<rect x="60" y="59" width="10" height="10" fill="#003262"/>
<rect x="60" y="49" width="10" height="30" fill="#003262"/>
<rect x="76" y="49" width="10" height="10" fill="#003262"/>
<rect x="76" y="59" width="10" height="10" fill="#003262"/>
<rect x="76" y="49" width="10" height="30" fill="#003262"/>
<rect x="92" y="49" width="10" height="10" fill="#003262"/>
<rect x="92" y="59" width="10" height="10" fill="#003262"/>
<rect x="92" y="49" width="10" height="30" fill="#003262"/>
<rect x="108" y="49" width="10" height="30" fill="#BDBDBD"/>
<rect x="92" y="49" width="10" height="10" fill="#003262"/>
<rect x="92" y="59" width="10" height="10" fill="#003262"/>
<rect x="92" y="49" width="10" height="30" fill="#003262"/>
<rect x="12" y="49" width="10" height="30" fill="#F2F2F2"/>
<rect x="316" y="49" width="10" height="30" fill="#F2F2F2"/>
<rect x="316" y="239" width="10" height="30" fill="#F2F2F2"/>
<rect x="28" y="49" width="10" height="30" fill="#003262"/>
<rect x="44" y="49" width="10" height="30" fill="#003262"/>
<rect x="76" y="239" width="10" height="30" fill="#003262"/>
<rect x="12" y="239" width="10" height="30" fill="#F2F2F2"/>
<rect x="28" y="239" width="10" height="30" fill="#F2F2F2"/>
<rect x="44" y="239" width="10" height="30" fill="#F2F2F2"/>
<rect x="108" y="49" width="10" height="30" fill="#BDBDBD"/>
<rect x="124" y="49" width="10" height="30" fill="#BDBDBD"/>
<rect x="140" y="49" width="10" height="30" fill="#BDBDBD"/>
<rect x="156" y="49" width="10" height="30" fill="#BDBDBD"/>
<rect x="172" y="49" width="10" height="30" fill="#BDBDBD"/>
<rect x="156" y="49" width="10" height="30" fill="#BDBDBD"/>
<rect x="172" y="49" width="10" height="30" fill="#BDBDBD"/>
<rect x="188" y="49" width="10" height="30" fill="#BDBDBD"/>
<rect x="382" y="9" width="10" height="70" fill="#BDBDBD"/>
<rect x="382" y="9" width="10" height="70" fill="#BDBDBD"/>
<rect x="398" y="9" width="10" height="70" fill="#BDBDBD"/>
<rect x="414" y="9" width="10" height="70" fill="#BDBDBD"/>
<rect x="430" y="9" width="10" height="70" fill="#BDBDBD"/>
<rect x="446" y="9" width="10" height="70" fill="#BDBDBD"/>
<rect x="430" y="9" width="10" height="70" fill="#BDBDBD"/>
<rect x="446" y="9" width="10" height="70" fill="#BDBDBD"/>
<rect x="462" y="9" width="10" height="70" fill="#BDBDBD"/>
<rect x="480" y="9" width="10" height="70" fill="#BDBDBD"/>
<rect x="480" y="9" width="10" height="70" fill="#BDBDBD"/>
<rect x="496" y="9" width="10" height="70" fill="#BDBDBD"/>
<rect x="512" y="9" width="10" height="70" fill="#BDBDBD"/>
<rect x="528" y="9" width="10" height="70" fill="#BDBDBD"/>
<rect x="544" y="9" width="10" height="70" fill="#BDBDBD"/>
<rect x="528" y="9" width="10" height="70" fill="#BDBDBD"/>
<rect x="544" y="9" width="10" height="70" fill="#BDBDBD"/>
<rect x="560" y="9" width="10" height="70" fill="#BDBDBD"/>
<rect x="578" y="9" width="10" height="70" fill="#BDBDBD"/>
<rect x="578" y="9" width="10" height="70" fill="#BDBDBD"/>
<rect x="594" y="9" width="10" height="70" fill="#BDBDBD"/>
<rect x="610" y="9" width="10" height="70" fill="#BDBDBD"/>
<rect x="626" y="9" width="10" height="70" fill="#BDBDBD"/>
<rect x="642" y="9" width="10" height="70" fill="#BDBDBD"/>
<rect x="626" y="9" width="10" height="70" fill="#BDBDBD"/>
<rect x="642" y="9" width="10" height="70" fill="#BDBDBD"/>
<rect x="658" y="9" width="10" height="70" fill="#BDBDBD"/>
<rect x="674" y="9" width="10" height="70" fill="#BDBDBD"/>
<rect x="674" y="9" width="10" height="70" fill="#BDBDBD"/>
<rect x="204" y="49" width="10" height="30" fill="#F2994A"/>
<rect x="220" y="49" width="10" height="30" fill="#F2994A"/>
<rect x="236" y="49" width="10" height="30" fill="#F2994A"/>
<rect x="220" y="49" width="10" height="30" fill="#F2994A"/>
<rect x="236" y="49" width="10" height="30" fill="#F2994A"/>
<rect x="252" y="49" width="10" height="30" fill="#F2994A"/>
<rect x="252" y="239" width="10" height="30" fill="#F2994A"/>
<rect x="268" y="49" width="10" height="30" fill="#F2994A"/>
<rect x="284" y="49" width="10" height="30" fill="#BDBDBD"/>
<rect x="300" y="49" width="10" height="30" fill="#BDBDBD"/>
<rect x="284" y="49" width="10" height="30" fill="#BDBDBD"/>
<rect x="300" y="49" width="10" height="30" fill="#BDBDBD"/>
<rect x="60" y="239" width="10" height="30" fill="#BDBDBD"/>
<rect x="92" y="239" width="10" height="30" fill="#BDBDBD"/>
<rect x="108" y="239" width="10" height="30" fill="#BDBDBD"/>
<rect x="92" y="239" width="10" height="30" fill="#BDBDBD"/>
<rect x="108" y="239" width="10" height="30" fill="#BDBDBD"/>
<rect x="124" y="239" width="10" height="30" fill="#BDBDBD"/>
<rect x="140" y="239" width="10" height="30" fill="#BDBDBD"/>
<rect x="156" y="239" width="10" height="30" fill="#BDBDBD"/>
<rect x="172" y="239" width="10" height="30" fill="#BDBDBD"/>
<rect x="156" y="239" width="10" height="30" fill="#BDBDBD"/>
<rect x="172" y="239" width="10" height="30" fill="#BDBDBD"/>
<rect x="188" y="239" width="10" height="30" fill="#BDBDBD"/>
<rect x="204" y="239" width="10" height="30" fill="#BDBDBD"/>
<rect x="220" y="239" width="10" height="30" fill="#BDBDBD"/>
<rect x="236" y="239" width="10" height="30" fill="#BDBDBD"/>
<rect x="220" y="239" width="10" height="30" fill="#BDBDBD"/>
<rect x="236" y="239" width="10" height="30" fill="#BDBDBD"/>
<rect x="268" y="239" width="10" height="30" fill="#BDBDBD"/>
<rect x="284" y="239" width="10" height="30" fill="#BDBDBD"/>
<rect x="300" y="239" width="10" height="30" fill="#BDBDBD"/>
<rect x="284" y="239" width="10" height="30" fill="#BDBDBD"/>
<rect x="300" y="239" width="10" height="30" fill="#BDBDBD"/>
<path d="M12 91.4915H326V123.424H12V91.4915Z" fill="#8C1515"/>
<path d="M152.532 111.622C151.839 111.622 151.241 111.479 150.738 111.193C150.244 110.907 149.872 110.517 149.62 110.023C149.369 109.52 149.243 108.961 149.243 108.346C149.243 107.34 149.525 106.53 150.088 105.915C150.66 105.299 151.505 104.992 152.623 104.992C153.282 104.992 153.863 105.117 154.365 105.369L154.183 106.396C153.655 106.153 153.126 106.032 152.597 106.032C151.904 106.032 151.371 106.231 150.998 106.63C150.626 107.02 150.439 107.574 150.439 108.294C150.439 109.013 150.617 109.576 150.972 109.984C151.336 110.391 151.869 110.595 152.571 110.595C153.135 110.595 153.676 110.465 154.196 110.205L154.352 111.141C154.162 111.271 153.897 111.383 153.559 111.479C153.23 111.574 152.888 111.622 152.532 111.622ZM158.204 111.622C157.554 111.622 156.991 111.479 156.514 111.193C156.037 110.898 155.673 110.499 155.422 109.997C155.171 109.494 155.045 108.931 155.045 108.307C155.045 107.683 155.171 107.119 155.422 106.617C155.673 106.114 156.037 105.72 156.514 105.434C156.991 105.139 157.554 104.992 158.204 104.992C158.845 104.992 159.404 105.139 159.881 105.434C160.366 105.72 160.735 106.114 160.986 106.617C161.237 107.119 161.363 107.683 161.363 108.307C161.363 108.931 161.237 109.494 160.986 109.997C160.735 110.499 160.366 110.898 159.881 111.193C159.404 111.479 158.845 111.622 158.204 111.622ZM158.204 110.582C158.828 110.582 159.309 110.382 159.647 109.984C159.994 109.585 160.167 109.026 160.167 108.307C160.167 107.587 159.994 107.028 159.647 106.63C159.309 106.231 158.828 106.032 158.204 106.032C157.58 106.032 157.095 106.231 156.748 106.63C156.41 107.028 156.241 107.587 156.241 108.307C156.241 109.026 156.41 109.585 156.748 109.984C157.095 110.382 157.58 110.582 158.204 110.582ZM165.715 104.992C167.449 104.992 168.315 105.988 168.315 107.982V111.492H167.145V107.982C167.145 107.297 167.015 106.803 166.755 106.5C166.504 106.188 166.079 106.032 165.481 106.032C165.1 106.032 164.753 106.101 164.441 106.24C164.129 106.378 163.895 106.586 163.739 106.864V111.492H162.569V105.122H163.479L163.609 105.798C163.947 105.494 164.285 105.286 164.623 105.174C164.97 105.052 165.334 104.992 165.715 104.992ZM168.99 105.122H170.29L172.071 110.205L173.839 105.122H175.152L172.734 111.492H171.421L168.99 105.122ZM179.517 106.734C180.635 107.098 181.194 107.852 181.194 108.996C181.194 109.542 181.056 110.018 180.778 110.426C180.51 110.824 180.137 111.132 179.66 111.349C179.192 111.565 178.659 111.674 178.061 111.674C177.169 111.674 176.302 111.444 175.461 110.985L175.76 109.841C176.168 110.075 176.549 110.252 176.904 110.374C177.268 110.495 177.658 110.556 178.074 110.556C178.629 110.556 179.067 110.417 179.387 110.14C179.717 109.862 179.881 109.494 179.881 109.035C179.881 108.515 179.699 108.107 179.335 107.813C178.98 107.518 178.447 107.371 177.736 107.371H177.164V106.253H177.736C178.3 106.253 178.742 106.123 179.062 105.863C179.392 105.594 179.556 105.23 179.556 104.771C179.556 104.285 179.431 103.926 179.179 103.692C178.937 103.449 178.577 103.328 178.1 103.328C177.754 103.328 177.424 103.393 177.112 103.523C176.8 103.653 176.471 103.835 176.124 104.069L175.916 102.808C176.618 102.409 177.403 102.21 178.269 102.21C179.101 102.21 179.747 102.431 180.206 102.873C180.674 103.315 180.908 103.895 180.908 104.615C180.908 105.109 180.787 105.542 180.544 105.915C180.302 106.279 179.959 106.552 179.517 106.734ZM188.41 101.742V111.492H187.37L187.24 110.712C187.023 111.006 186.741 111.232 186.395 111.388C186.048 111.544 185.68 111.622 185.29 111.622C184.752 111.622 184.263 111.474 183.821 111.18C183.379 110.885 183.028 110.486 182.768 109.984C182.516 109.481 182.391 108.926 182.391 108.32C182.391 107.73 182.508 107.18 182.742 106.669C182.984 106.157 183.327 105.75 183.769 105.447C184.211 105.143 184.718 104.992 185.29 104.992C185.671 104.992 186.031 105.061 186.369 105.2C186.707 105.338 186.997 105.551 187.24 105.837V101.742H188.41ZM185.498 110.582C185.81 110.582 186.109 110.504 186.395 110.348C186.681 110.183 186.915 109.932 187.097 109.594C187.279 109.256 187.37 108.831 187.37 108.32C187.37 107.843 187.279 107.431 187.097 107.085C186.915 106.738 186.676 106.478 186.382 106.305C186.096 106.123 185.801 106.032 185.498 106.032C184.908 106.032 184.44 106.248 184.094 106.682C183.756 107.106 183.587 107.652 183.587 108.32C183.587 108.961 183.76 109.498 184.107 109.932C184.453 110.365 184.917 110.582 185.498 110.582Z" fill="white"/>
<path d="M12 91.4915H326V123.424H12V91.4915Z" fill="#8C1515"/>
<path d="M152.532 111.622C151.839 111.622 151.241 111.479 150.738 111.193C150.244 110.907 149.872 110.517 149.62 110.023C149.369 109.52 149.243 108.961 149.243 108.346C149.243 107.34 149.525 106.53 150.088 105.915C150.66 105.299 151.505 104.992 152.623 104.992C153.282 104.992 153.863 105.117 154.365 105.369L154.183 106.396C153.655 106.153 153.126 106.032 152.597 106.032C151.904 106.032 151.371 106.231 150.998 106.63C150.626 107.02 150.439 107.574 150.439 108.294C150.439 109.013 150.617 109.576 150.972 109.984C151.336 110.391 151.869 110.595 152.571 110.595C153.135 110.595 153.676 110.465 154.196 110.205L154.352 111.141C154.162 111.271 153.897 111.383 153.559 111.479C153.23 111.574 152.888 111.622 152.532 111.622ZM158.204 111.622C157.554 111.622 156.991 111.479 156.514 111.193C156.037 110.898 155.673 110.499 155.422 109.997C155.171 109.494 155.045 108.931 155.045 108.307C155.045 107.683 155.171 107.119 155.422 106.617C155.673 106.114 156.037 105.72 156.514 105.434C156.991 105.139 157.554 104.992 158.204 104.992C158.845 104.992 159.404 105.139 159.881 105.434C160.366 105.72 160.735 106.114 160.986 106.617C161.237 107.119 161.363 107.683 161.363 108.307C161.363 108.931 161.237 109.494 160.986 109.997C160.735 110.499 160.366 110.898 159.881 111.193C159.404 111.479 158.845 111.622 158.204 111.622ZM158.204 110.582C158.828 110.582 159.309 110.382 159.647 109.984C159.994 109.585 160.167 109.026 160.167 108.307C160.167 107.587 159.994 107.028 159.647 106.63C159.309 106.231 158.828 106.032 158.204 106.032C157.58 106.032 157.095 106.231 156.748 106.63C156.41 107.028 156.241 107.587 156.241 108.307C156.241 109.026 156.41 109.585 156.748 109.984C157.095 110.382 157.58 110.582 158.204 110.582ZM165.715 104.992C167.449 104.992 168.315 105.988 168.315 107.982V111.492H167.145V107.982C167.145 107.297 167.015 106.803 166.755 106.5C166.504 106.188 166.079 106.032 165.481 106.032C165.1 106.032 164.753 106.101 164.441 106.24C164.129 106.378 163.895 106.586 163.739 106.864V111.492H162.569V105.122H163.479L163.609 105.798C163.947 105.494 164.285 105.286 164.623 105.174C164.97 105.052 165.334 104.992 165.715 104.992ZM168.99 105.122H170.29L172.071 110.205L173.839 105.122H175.152L172.734 111.492H171.421L168.99 105.122ZM179.517 106.734C180.635 107.098 181.194 107.852 181.194 108.996C181.194 109.542 181.056 110.018 180.778 110.426C180.51 110.824 180.137 111.132 179.66 111.349C179.192 111.565 178.659 111.674 178.061 111.674C177.169 111.674 176.302 111.444 175.461 110.985L175.76 109.841C176.168 110.075 176.549 110.252 176.904 110.374C177.268 110.495 177.658 110.556 178.074 110.556C178.629 110.556 179.067 110.417 179.387 110.14C179.717 109.862 179.881 109.494 179.881 109.035C179.881 108.515 179.699 108.107 179.335 107.813C178.98 107.518 178.447 107.371 177.736 107.371H177.164V106.253H177.736C178.3 106.253 178.742 106.123 179.062 105.863C179.392 105.594 179.556 105.23 179.556 104.771C179.556 104.285 179.431 103.926 179.179 103.692C178.937 103.449 178.577 103.328 178.1 103.328C177.754 103.328 177.424 103.393 177.112 103.523C176.8 103.653 176.471 103.835 176.124 104.069L175.916 102.808C176.618 102.409 177.403 102.21 178.269 102.21C179.101 102.21 179.747 102.431 180.206 102.873C180.674 103.315 180.908 103.895 180.908 104.615C180.908 105.109 180.787 105.542 180.544 105.915C180.302 106.279 179.959 106.552 179.517 106.734ZM188.41 101.742V111.492H187.37L187.24 110.712C187.023 111.006 186.741 111.232 186.395 111.388C186.048 111.544 185.68 111.622 185.29 111.622C184.752 111.622 184.263 111.474 183.821 111.18C183.379 110.885 183.028 110.486 182.768 109.984C182.516 109.481 182.391 108.926 182.391 108.32C182.391 107.73 182.508 107.18 182.742 106.669C182.984 106.157 183.327 105.75 183.769 105.447C184.211 105.143 184.718 104.992 185.29 104.992C185.671 104.992 186.031 105.061 186.369 105.2C186.707 105.338 186.997 105.551 187.24 105.837V101.742H188.41ZM185.498 110.582C185.81 110.582 186.109 110.504 186.395 110.348C186.681 110.183 186.915 109.932 187.097 109.594C187.279 109.256 187.37 108.831 187.37 108.32C187.37 107.843 187.279 107.431 187.097 107.085C186.915 106.738 186.676 106.478 186.382 106.305C186.096 106.123 185.801 106.032 185.498 106.032C184.908 106.032 184.44 106.248 184.094 106.682C183.756 107.106 183.587 107.652 183.587 108.32C183.587 108.961 183.76 109.498 184.107 109.932C184.453 110.365 184.917 110.582 185.498 110.582Z" fill="white"/>
<path d="M382 185H684V216.932H382V185Z" fill="#003262"/>
<path d="M467.343 199.54H466.238L466.394 198.63H467.343V197.122C467.343 196.541 467.495 196.086 467.798 195.757C468.11 195.419 468.557 195.25 469.137 195.25C469.519 195.25 469.857 195.306 470.151 195.419L469.969 196.407C469.761 196.329 469.545 196.29 469.319 196.29C468.782 196.29 468.513 196.593 468.513 197.2V198.63H470.229V199.54H468.513V205H467.343V199.54ZM472.843 205.13C472.271 205.13 471.851 204.983 471.582 204.688C471.322 204.393 471.192 204.029 471.192 203.596V195.25H472.362V202.92C472.362 203.301 472.384 203.579 472.427 203.752C472.479 203.925 472.574 204.042 472.713 204.103C472.852 204.164 473.077 204.194 473.389 204.194L473.22 205.13H472.843ZM475.759 205.13C475.17 205.13 474.693 204.957 474.329 204.61C473.974 204.263 473.796 203.821 473.796 203.284C473.796 202.478 474.178 201.902 474.94 201.555C475.703 201.208 476.591 201.026 477.605 201.009C477.605 200.437 477.493 200.051 477.267 199.852C477.051 199.644 476.7 199.54 476.214 199.54C475.946 199.54 475.677 199.583 475.408 199.67C475.14 199.748 474.849 199.895 474.537 200.112L474.368 199.163C474.628 198.964 474.949 198.803 475.33 198.682C475.712 198.561 476.11 198.5 476.526 198.5C477.072 198.5 477.506 198.595 477.826 198.786C478.156 198.977 478.394 199.293 478.541 199.735C478.697 200.177 478.775 200.784 478.775 201.555V202.855C478.775 203.202 478.788 203.466 478.814 203.648C478.849 203.821 478.918 203.956 479.022 204.051C479.126 204.146 479.287 204.194 479.503 204.194H479.62L479.438 205.13H479.347C478.983 205.13 478.697 205.095 478.489 205.026C478.281 204.957 478.121 204.857 478.008 204.727C477.904 204.597 477.805 204.419 477.709 204.194C477.172 204.818 476.522 205.13 475.759 205.13ZM475.98 204.194C476.292 204.194 476.591 204.116 476.877 203.96C477.172 203.804 477.415 203.596 477.605 203.336V201.815C476.669 201.85 475.998 201.975 475.59 202.192C475.192 202.4 474.992 202.742 474.992 203.219C474.992 203.548 475.079 203.795 475.252 203.96C475.434 204.116 475.677 204.194 475.98 204.194ZM482.594 205.13C482.03 205.13 481.61 204.983 481.333 204.688C481.064 204.393 480.93 204.034 480.93 203.609V199.54H479.838L479.942 198.63H480.93V197.057L482.1 196.94V198.63H483.777V199.54H482.1V202.894C482.1 203.336 482.126 203.639 482.178 203.804C482.23 203.969 482.338 204.077 482.503 204.129C482.676 204.172 482.988 204.194 483.439 204.194H483.738L483.647 205.13H482.594ZM486.973 205.13C486.41 205.13 485.99 204.983 485.712 204.688C485.444 204.393 485.309 204.034 485.309 203.609V199.54H484.217L484.321 198.63H485.309V197.057L486.479 196.94V198.63H488.156V199.54H486.479V202.894C486.479 203.336 486.505 203.639 486.557 203.804C486.609 203.969 486.718 204.077 486.882 204.129C487.056 204.172 487.368 204.194 487.818 204.194H488.117L488.026 205.13H486.973ZM492.161 205.13C491.433 205.13 490.809 204.983 490.289 204.688C489.777 204.385 489.387 203.977 489.119 203.466C488.85 202.955 488.716 202.387 488.716 201.763C488.716 201.165 488.837 200.619 489.08 200.125C489.331 199.622 489.691 199.228 490.159 198.942C490.635 198.647 491.194 198.5 491.836 198.5C492.65 198.5 493.309 198.738 493.812 199.215C494.323 199.692 494.579 200.35 494.579 201.191C494.579 201.408 494.561 201.616 494.527 201.815H489.912C489.99 202.638 490.241 203.223 490.666 203.57C491.09 203.917 491.636 204.09 492.304 204.09C492.971 204.09 493.582 203.964 494.137 203.713L494.293 204.636C493.556 204.965 492.845 205.13 492.161 205.13ZM493.37 201.009C493.37 200.55 493.24 200.19 492.98 199.93C492.72 199.67 492.33 199.54 491.81 199.54C491.307 199.54 490.913 199.666 490.627 199.917C490.341 200.16 490.137 200.524 490.016 201.009H493.37ZM498.904 198.5C500.637 198.5 501.504 199.497 501.504 201.49V205H500.334V201.49C500.334 200.805 500.204 200.311 499.944 200.008C499.693 199.696 499.268 199.54 498.67 199.54C498.289 199.54 497.942 199.609 497.63 199.748C497.318 199.887 497.084 200.095 496.928 200.372V205H495.758V198.63H496.668L496.798 199.306C497.136 199.003 497.474 198.795 497.812 198.682C498.159 198.561 498.523 198.5 498.904 198.5ZM507.798 206.768C507.252 205.971 506.823 205.113 506.511 204.194C506.208 203.275 506.056 202.214 506.056 201.009C506.056 199.804 506.208 198.743 506.511 197.824C506.823 196.905 507.252 196.047 507.798 195.25H508.825C508.331 196.073 507.941 196.953 507.655 197.889C507.369 198.816 507.226 199.856 507.226 201.009C507.226 202.162 507.369 203.206 507.655 204.142C507.941 205.069 508.331 205.945 508.825 206.768H507.798ZM511.882 205.13C511.318 205.13 510.898 204.983 510.621 204.688C510.352 204.393 510.218 204.034 510.218 203.609V199.54H509.126L509.23 198.63H510.218V197.057L511.388 196.94V198.63H513.065V199.54H511.388V202.894C511.388 203.336 511.414 203.639 511.466 203.804C511.518 203.969 511.626 204.077 511.791 204.129C511.964 204.172 512.276 204.194 512.727 204.194H513.026L512.935 205.13H511.882ZM514.064 195.9H515.234V197.2H514.064V195.9ZM514.064 198.63H515.234V205H514.064V198.63ZM524.255 198.5C525.885 198.5 526.699 199.414 526.699 201.243V205H525.529V201.256C525.529 200.658 525.412 200.225 525.178 199.956C524.944 199.679 524.563 199.54 524.034 199.54C522.908 199.54 522.344 200.129 522.344 201.308V205H521.174V201.49C521.174 200.762 521.044 200.255 520.784 199.969C520.533 199.683 520.165 199.54 519.679 199.54C519.298 199.54 518.96 199.609 518.665 199.748C518.371 199.887 518.145 200.095 517.989 200.372V205H516.819V198.63H517.729L517.859 199.306C518.18 199.02 518.501 198.816 518.821 198.695C519.151 198.565 519.502 198.5 519.874 198.5C520.845 198.5 521.53 198.925 521.928 199.774C522.37 198.925 523.146 198.5 524.255 198.5ZM531.275 205.13C530.547 205.13 529.923 204.983 529.403 204.688C528.891 204.385 528.501 203.977 528.233 203.466C527.964 202.955 527.83 202.387 527.83 201.763C527.83 201.165 527.951 200.619 528.194 200.125C528.445 199.622 528.805 199.228 529.273 198.942C529.749 198.647 530.308 198.5 530.95 198.5C531.764 198.5 532.423 198.738 532.926 199.215C533.437 199.692 533.693 200.35 533.693 201.191C533.693 201.408 533.675 201.616 533.641 201.815H529.026C529.104 202.638 529.355 203.223 529.78 203.57C530.204 203.917 530.75 204.09 531.418 204.09C532.085 204.09 532.696 203.964 533.251 203.713L533.407 204.636C532.67 204.965 531.959 205.13 531.275 205.13ZM532.484 201.009C532.484 200.55 532.354 200.19 532.094 199.93C531.834 199.67 531.444 199.54 530.924 199.54C530.421 199.54 530.027 199.666 529.741 199.917C529.455 200.16 529.251 200.524 529.13 201.009H532.484ZM543.434 195.25V205H542.394L542.264 204.22C542.047 204.515 541.766 204.74 541.419 204.896C541.072 205.052 540.704 205.13 540.314 205.13C539.777 205.13 539.287 204.983 538.845 204.688C538.403 204.393 538.052 203.995 537.792 203.492C537.541 202.989 537.415 202.435 537.415 201.828C537.415 201.239 537.532 200.688 537.766 200.177C538.009 199.666 538.351 199.258 538.793 198.955C539.235 198.652 539.742 198.5 540.314 198.5C540.695 198.5 541.055 198.569 541.393 198.708C541.731 198.847 542.021 199.059 542.264 199.345V195.25H543.434ZM540.522 204.09C540.834 204.09 541.133 204.012 541.419 203.856C541.705 203.691 541.939 203.44 542.121 203.102C542.303 202.764 542.394 202.339 542.394 201.828C542.394 201.351 542.303 200.94 542.121 200.593C541.939 200.246 541.701 199.986 541.406 199.813C541.12 199.631 540.825 199.54 540.522 199.54C539.933 199.54 539.465 199.757 539.118 200.19C538.78 200.615 538.611 201.161 538.611 201.828C538.611 202.469 538.784 203.007 539.131 203.44C539.478 203.873 539.941 204.09 540.522 204.09ZM545.003 195.9H546.173V197.2H545.003V195.9ZM545.003 198.63H546.173V205H545.003V198.63ZM549.565 205.13C549.062 205.13 548.62 205.074 548.239 204.961C547.866 204.84 547.58 204.71 547.381 204.571L547.524 203.44C547.697 203.596 547.962 203.743 548.317 203.882C548.681 204.021 549.08 204.09 549.513 204.09C549.92 204.09 550.232 204.021 550.449 203.882C550.674 203.743 550.787 203.548 550.787 203.297C550.787 203.002 550.666 202.781 550.423 202.634C550.18 202.478 549.877 202.348 549.513 202.244C549.114 202.14 548.776 202.032 548.499 201.919C548.23 201.798 547.996 201.616 547.797 201.373C547.606 201.13 547.511 200.81 547.511 200.411C547.511 199.865 547.706 199.41 548.096 199.046C548.486 198.682 549.088 198.5 549.903 198.5C550.276 198.5 550.592 198.539 550.852 198.617C551.112 198.686 551.372 198.786 551.632 198.916L551.489 199.982C551.281 199.809 551.051 199.674 550.8 199.579C550.549 199.475 550.258 199.423 549.929 199.423C549.548 199.423 549.244 199.497 549.019 199.644C548.802 199.783 548.694 199.995 548.694 200.281C548.694 200.472 548.746 200.628 548.85 200.749C548.954 200.862 549.101 200.957 549.292 201.035C549.483 201.113 549.777 201.213 550.176 201.334C550.67 201.481 551.095 201.689 551.45 201.958C551.814 202.227 551.996 202.651 551.996 203.232C551.996 203.752 551.81 204.198 551.437 204.571C551.073 204.944 550.449 205.13 549.565 205.13ZM555.338 205.13C554.774 205.13 554.354 204.983 554.077 204.688C553.808 204.393 553.674 204.034 553.674 203.609V199.54H552.582L552.686 198.63H553.674V197.057L554.844 196.94V198.63H556.521V199.54H554.844V202.894C554.844 203.336 554.87 203.639 554.922 203.804C554.974 203.969 555.082 204.077 555.247 204.129C555.42 204.172 555.732 204.194 556.183 204.194H556.482L556.391 205.13H555.338ZM557.521 198.63H558.483L558.626 199.683C558.955 199.276 559.267 198.977 559.562 198.786C559.865 198.595 560.181 198.5 560.511 198.5C560.615 198.5 560.714 198.513 560.81 198.539L560.693 199.826C560.58 199.8 560.45 199.787 560.303 199.787C559.982 199.787 559.679 199.861 559.393 200.008C559.107 200.147 558.899 200.311 558.769 200.502V205H557.521V198.63ZM561.634 195.9H562.804V197.2H561.634V195.9ZM561.634 198.63H562.804V205H561.634V198.63ZM567.522 198.5C568.094 198.5 568.596 198.652 569.03 198.955C569.472 199.258 569.81 199.666 570.044 200.177C570.278 200.68 570.395 201.226 570.395 201.815C570.395 202.422 570.265 202.981 570.005 203.492C569.753 203.995 569.407 204.393 568.965 204.688C568.531 204.983 568.05 205.13 567.522 205.13C567.132 205.13 566.755 205.052 566.391 204.896C566.027 204.731 565.745 204.506 565.546 204.22L565.416 205H564.376V195.25H565.546V199.371C565.78 199.102 566.07 198.89 566.417 198.734C566.772 198.578 567.14 198.5 567.522 198.5ZM567.379 204.09C567.925 204.09 568.362 203.873 568.692 203.44C569.03 202.998 569.199 202.456 569.199 201.815C569.199 201.156 569.03 200.615 568.692 200.19C568.362 199.757 567.925 199.54 567.379 199.54C566.841 199.54 566.391 199.739 566.027 200.138C565.663 200.528 565.481 201.087 565.481 201.815C565.481 202.569 565.658 203.137 566.014 203.518C566.378 203.899 566.833 204.09 567.379 204.09ZM576.826 198.63V205H575.786L575.656 204.298C575.448 204.584 575.201 204.796 574.915 204.935C574.637 205.065 574.295 205.13 573.888 205.13C573.125 205.13 572.54 204.9 572.133 204.441C571.734 203.973 571.535 203.271 571.535 202.335V198.63H572.705V202.01C572.705 202.703 572.822 203.223 573.056 203.57C573.298 203.917 573.675 204.09 574.187 204.09C574.49 204.09 574.772 204.029 575.032 203.908C575.3 203.787 575.508 203.609 575.656 203.375V198.63H576.826ZM580.614 205.13C580.051 205.13 579.63 204.983 579.353 204.688C579.084 204.393 578.95 204.034 578.95 203.609V199.54H577.858L577.962 198.63H578.95V197.057L580.12 196.94V198.63H581.797V199.54H580.12V202.894C580.12 203.336 580.146 203.639 580.198 203.804C580.25 203.969 580.358 204.077 580.523 204.129C580.696 204.172 581.008 204.194 581.459 204.194H581.758L581.667 205.13H580.614ZM585.801 205.13C585.073 205.13 584.449 204.983 583.929 204.688C583.418 204.385 583.028 203.977 582.759 203.466C582.49 202.955 582.356 202.387 582.356 201.763C582.356 201.165 582.477 200.619 582.72 200.125C582.971 199.622 583.331 199.228 583.799 198.942C584.276 198.647 584.835 198.5 585.476 198.5C586.291 198.5 586.949 198.738 587.452 199.215C587.963 199.692 588.219 200.35 588.219 201.191C588.219 201.408 588.202 201.616 588.167 201.815H583.552C583.63 202.638 583.881 203.223 584.306 203.57C584.731 203.917 585.277 204.09 585.944 204.09C586.611 204.09 587.222 203.964 587.777 203.713L587.933 204.636C587.196 204.965 586.486 205.13 585.801 205.13ZM587.01 201.009C587.01 200.55 586.88 200.19 586.62 199.93C586.36 199.67 585.97 199.54 585.45 199.54C584.947 199.54 584.553 199.666 584.267 199.917C583.981 200.16 583.777 200.524 583.656 201.009H587.01ZM595.04 195.25V205H594L593.87 204.22C593.654 204.515 593.372 204.74 593.025 204.896C592.679 205.052 592.31 205.13 591.92 205.13C591.383 205.13 590.893 204.983 590.451 204.688C590.009 204.393 589.658 203.995 589.398 203.492C589.147 202.989 589.021 202.435 589.021 201.828C589.021 201.239 589.138 200.688 589.372 200.177C589.615 199.666 589.957 199.258 590.399 198.955C590.841 198.652 591.348 198.5 591.92 198.5C592.302 198.5 592.661 198.569 592.999 198.708C593.337 198.847 593.628 199.059 593.87 199.345V195.25H595.04ZM592.128 204.09C592.44 204.09 592.739 204.012 593.025 203.856C593.311 203.691 593.545 203.44 593.727 203.102C593.909 202.764 594 202.339 594 201.828C594 201.351 593.909 200.94 593.727 200.593C593.545 200.246 593.307 199.986 593.012 199.813C592.726 199.631 592.432 199.54 592.128 199.54C591.539 199.54 591.071 199.757 590.724 200.19C590.386 200.615 590.217 201.161 590.217 201.828C590.217 202.469 590.391 203.007 590.737 203.44C591.084 203.873 591.548 204.09 592.128 204.09ZM596.206 206.768C596.7 205.945 597.09 205.069 597.376 204.142C597.662 203.206 597.805 202.162 597.805 201.009C597.805 199.856 597.662 198.816 597.376 197.889C597.09 196.953 596.7 196.073 596.206 195.25H597.233C597.779 196.047 598.204 196.905 598.507 197.824C598.819 198.743 598.975 199.804 598.975 201.009C598.975 202.214 598.819 203.275 598.507 204.194C598.204 205.113 597.779 205.971 597.233 206.768H596.206Z" fill="white"/>
<path d="M382 249H684V280.932H382V249Z" fill="#003262"/>
<path d="M464.29 269.13C463.788 269.13 463.346 269.074 462.964 268.961C462.592 268.84 462.306 268.71 462.106 268.571L462.249 267.44C462.423 267.596 462.687 267.743 463.042 267.882C463.406 268.021 463.805 268.09 464.238 268.09C464.646 268.09 464.958 268.021 465.174 267.882C465.4 267.743 465.512 267.548 465.512 267.297C465.512 267.002 465.391 266.781 465.148 266.634C464.906 266.478 464.602 266.348 464.238 266.244C463.84 266.14 463.502 266.032 463.224 265.919C462.956 265.798 462.722 265.616 462.522 265.373C462.332 265.13 462.236 264.81 462.236 264.411C462.236 263.865 462.431 263.41 462.821 263.046C463.211 262.682 463.814 262.5 464.628 262.5C465.001 262.5 465.317 262.539 465.577 262.617C465.837 262.686 466.097 262.786 466.357 262.916L466.214 263.982C466.006 263.809 465.777 263.674 465.525 263.579C465.274 263.475 464.984 263.423 464.654 263.423C464.273 263.423 463.97 263.497 463.744 263.644C463.528 263.783 463.419 263.995 463.419 264.281C463.419 264.472 463.471 264.628 463.575 264.749C463.679 264.862 463.827 264.957 464.017 265.035C464.208 265.113 464.503 265.213 464.901 265.334C465.395 265.481 465.82 265.689 466.175 265.958C466.539 266.227 466.721 266.651 466.721 267.232C466.721 267.752 466.535 268.198 466.162 268.571C465.798 268.944 465.174 269.13 464.29 269.13ZM470.648 269.13C469.998 269.13 469.435 268.987 468.958 268.701C468.482 268.406 468.118 268.008 467.866 267.505C467.615 267.002 467.489 266.439 467.489 265.815C467.489 265.191 467.615 264.628 467.866 264.125C468.118 263.622 468.482 263.228 468.958 262.942C469.435 262.647 469.998 262.5 470.648 262.5C471.29 262.5 471.849 262.647 472.325 262.942C472.811 263.228 473.179 263.622 473.43 264.125C473.682 264.628 473.807 265.191 473.807 265.815C473.807 266.439 473.682 267.002 473.43 267.505C473.179 268.008 472.811 268.406 472.325 268.701C471.849 268.987 471.29 269.13 470.648 269.13ZM470.648 268.09C471.272 268.09 471.753 267.891 472.091 267.492C472.438 267.093 472.611 266.534 472.611 265.815C472.611 265.096 472.438 264.537 472.091 264.138C471.753 263.739 471.272 263.54 470.648 263.54C470.024 263.54 469.539 263.739 469.192 264.138C468.854 264.537 468.685 265.096 468.685 265.815C468.685 266.534 468.854 267.093 469.192 267.492C469.539 267.891 470.024 268.09 470.648 268.09ZM475.392 263.54H474.287L474.443 262.63H475.392V261.122C475.392 260.541 475.544 260.086 475.847 259.757C476.159 259.419 476.606 259.25 477.186 259.25C477.568 259.25 477.906 259.306 478.2 259.419L478.018 260.407C477.81 260.329 477.594 260.29 477.368 260.29C476.831 260.29 476.562 260.593 476.562 261.2V262.63H478.278V263.54H476.562V269H475.392V263.54ZM481.451 269.13C480.888 269.13 480.467 268.983 480.19 268.688C479.921 268.393 479.787 268.034 479.787 267.609V263.54H478.695L478.799 262.63H479.787V261.057L480.957 260.94V262.63H482.634V263.54H480.957V266.894C480.957 267.336 480.983 267.639 481.035 267.804C481.087 267.969 481.195 268.077 481.36 268.129C481.533 268.172 481.845 268.194 482.296 268.194H482.595L482.504 269.13H481.451ZM491.07 262.5C492.699 262.5 493.514 263.414 493.514 265.243V269H492.344V265.256C492.344 264.658 492.227 264.225 491.993 263.956C491.759 263.679 491.377 263.54 490.849 263.54C489.722 263.54 489.159 264.129 489.159 265.308V269H487.989V265.49C487.989 264.762 487.859 264.255 487.599 263.969C487.347 263.683 486.979 263.54 486.494 263.54C486.112 263.54 485.774 263.609 485.48 263.748C485.185 263.887 484.96 264.095 484.804 264.372V269H483.634V262.63H484.544L484.674 263.306C484.994 263.02 485.315 262.816 485.636 262.695C485.965 262.565 486.316 262.5 486.689 262.5C487.659 262.5 488.344 262.925 488.743 263.774C489.185 262.925 489.96 262.5 491.07 262.5ZM496.516 269.13C495.927 269.13 495.45 268.957 495.086 268.61C494.731 268.263 494.553 267.821 494.553 267.284C494.553 266.478 494.935 265.902 495.697 265.555C496.46 265.208 497.348 265.026 498.362 265.009C498.362 264.437 498.25 264.051 498.024 263.852C497.808 263.644 497.457 263.54 496.971 263.54C496.703 263.54 496.434 263.583 496.165 263.67C495.897 263.748 495.606 263.895 495.294 264.112L495.125 263.163C495.385 262.964 495.706 262.803 496.087 262.682C496.469 262.561 496.867 262.5 497.283 262.5C497.829 262.5 498.263 262.595 498.583 262.786C498.913 262.977 499.151 263.293 499.298 263.735C499.454 264.177 499.532 264.784 499.532 265.555V266.855C499.532 267.202 499.545 267.466 499.571 267.648C499.606 267.821 499.675 267.956 499.779 268.051C499.883 268.146 500.044 268.194 500.26 268.194H500.377L500.195 269.13H500.104C499.74 269.13 499.454 269.095 499.246 269.026C499.038 268.957 498.878 268.857 498.765 268.727C498.661 268.597 498.562 268.419 498.466 268.194C497.929 268.818 497.279 269.13 496.516 269.13ZM496.737 268.194C497.049 268.194 497.348 268.116 497.634 267.96C497.929 267.804 498.172 267.596 498.362 267.336V265.815C497.426 265.85 496.755 265.975 496.347 266.192C495.949 266.4 495.749 266.742 495.749 267.219C495.749 267.548 495.836 267.795 496.009 267.96C496.191 268.116 496.434 268.194 496.737 268.194ZM502.853 265.828L500.682 262.63H501.995L503.594 265.152L505.063 262.63H506.428L504.335 265.724L506.506 269H505.193L503.581 266.491L501.943 269H500.63L502.853 265.828ZM512.216 270.768C511.67 269.971 511.241 269.113 510.929 268.194C510.626 267.275 510.474 266.214 510.474 265.009C510.474 263.804 510.626 262.743 510.929 261.824C511.241 260.905 511.67 260.047 512.216 259.25H513.243C512.749 260.073 512.359 260.953 512.073 261.889C511.787 262.816 511.644 263.856 511.644 265.009C511.644 266.162 511.787 267.206 512.073 268.142C512.359 269.069 512.749 269.945 513.243 270.768H512.216ZM516.3 269.13C515.736 269.13 515.316 268.983 515.039 268.688C514.77 268.393 514.636 268.034 514.636 267.609V263.54H513.544L513.648 262.63H514.636V261.057L515.806 260.94V262.63H517.483V263.54H515.806V266.894C515.806 267.336 515.832 267.639 515.884 267.804C515.936 267.969 516.044 268.077 516.209 268.129C516.382 268.172 516.694 268.194 517.145 268.194H517.444L517.353 269.13H516.3ZM518.482 259.9H519.652V261.2H518.482V259.9ZM518.482 262.63H519.652V269H518.482V262.63ZM528.673 262.5C530.303 262.5 531.117 263.414 531.117 265.243V269H529.947V265.256C529.947 264.658 529.83 264.225 529.596 263.956C529.362 263.679 528.981 263.54 528.452 263.54C527.326 263.54 526.762 264.129 526.762 265.308V269H525.592V265.49C525.592 264.762 525.462 264.255 525.202 263.969C524.951 263.683 524.583 263.54 524.097 263.54C523.716 263.54 523.378 263.609 523.083 263.748C522.789 263.887 522.563 264.095 522.407 264.372V269H521.237V262.63H522.147L522.277 263.306C522.598 263.02 522.919 262.816 523.239 262.695C523.569 262.565 523.92 262.5 524.292 262.5C525.263 262.5 525.948 262.925 526.346 263.774C526.788 262.925 527.564 262.5 528.673 262.5ZM535.693 269.13C534.965 269.13 534.341 268.983 533.821 268.688C533.309 268.385 532.919 267.977 532.651 267.466C532.382 266.955 532.248 266.387 532.248 265.763C532.248 265.165 532.369 264.619 532.612 264.125C532.863 263.622 533.223 263.228 533.691 262.942C534.167 262.647 534.726 262.5 535.368 262.5C536.182 262.5 536.841 262.738 537.344 263.215C537.855 263.692 538.111 264.35 538.111 265.191C538.111 265.408 538.093 265.616 538.059 265.815H533.444C533.522 266.638 533.773 267.223 534.198 267.57C534.622 267.917 535.168 268.09 535.836 268.09C536.503 268.09 537.114 267.964 537.669 267.713L537.825 268.636C537.088 268.965 536.377 269.13 535.693 269.13ZM536.902 265.009C536.902 264.55 536.772 264.19 536.512 263.93C536.252 263.67 535.862 263.54 535.342 263.54C534.839 263.54 534.445 263.666 534.159 263.917C533.873 264.16 533.669 264.524 533.548 265.009H536.902ZM547.852 259.25V269H546.812L546.682 268.22C546.465 268.515 546.184 268.74 545.837 268.896C545.49 269.052 545.122 269.13 544.732 269.13C544.195 269.13 543.705 268.983 543.263 268.688C542.821 268.393 542.47 267.995 542.21 267.492C541.959 266.989 541.833 266.435 541.833 265.828C541.833 265.239 541.95 264.688 542.184 264.177C542.427 263.666 542.769 263.258 543.211 262.955C543.653 262.652 544.16 262.5 544.732 262.5C545.113 262.5 545.473 262.569 545.811 262.708C546.149 262.847 546.439 263.059 546.682 263.345V259.25H547.852ZM544.94 268.09C545.252 268.09 545.551 268.012 545.837 267.856C546.123 267.691 546.357 267.44 546.539 267.102C546.721 266.764 546.812 266.339 546.812 265.828C546.812 265.351 546.721 264.94 546.539 264.593C546.357 264.246 546.119 263.986 545.824 263.813C545.538 263.631 545.243 263.54 544.94 263.54C544.351 263.54 543.883 263.757 543.536 264.19C543.198 264.615 543.029 265.161 543.029 265.828C543.029 266.469 543.202 267.007 543.549 267.44C543.896 267.873 544.359 268.09 544.94 268.09ZM549.421 259.9H550.591V261.2H549.421V259.9ZM549.421 262.63H550.591V269H549.421V262.63ZM553.983 269.13C553.48 269.13 553.038 269.074 552.657 268.961C552.284 268.84 551.998 268.71 551.799 268.571L551.942 267.44C552.115 267.596 552.379 267.743 552.735 267.882C553.099 268.021 553.497 268.09 553.931 268.09C554.338 268.09 554.65 268.021 554.867 267.882C555.092 267.743 555.205 267.548 555.205 267.297C555.205 267.002 555.083 266.781 554.841 266.634C554.598 266.478 554.295 266.348 553.931 266.244C553.532 266.14 553.194 266.032 552.917 265.919C552.648 265.798 552.414 265.616 552.215 265.373C552.024 265.13 551.929 264.81 551.929 264.411C551.929 263.865 552.124 263.41 552.514 263.046C552.904 262.682 553.506 262.5 554.321 262.5C554.693 262.5 555.01 262.539 555.27 262.617C555.53 262.686 555.79 262.786 556.05 262.916L555.907 263.982C555.699 263.809 555.469 263.674 555.218 263.579C554.966 263.475 554.676 263.423 554.347 263.423C553.965 263.423 553.662 263.497 553.437 263.644C553.22 263.783 553.112 263.995 553.112 264.281C553.112 264.472 553.164 264.628 553.268 264.749C553.372 264.862 553.519 264.957 553.71 265.035C553.9 265.113 554.195 265.213 554.594 265.334C555.088 265.481 555.512 265.689 555.868 265.958C556.232 266.227 556.414 266.651 556.414 267.232C556.414 267.752 556.227 268.198 555.855 268.571C555.491 268.944 554.867 269.13 553.983 269.13ZM559.756 269.13C559.192 269.13 558.772 268.983 558.495 268.688C558.226 268.393 558.092 268.034 558.092 267.609V263.54H557L557.104 262.63H558.092V261.057L559.262 260.94V262.63H560.939V263.54H559.262V266.894C559.262 267.336 559.288 267.639 559.34 267.804C559.392 267.969 559.5 268.077 559.665 268.129C559.838 268.172 560.15 268.194 560.601 268.194H560.9L560.809 269.13H559.756ZM561.939 262.63H562.901L563.044 263.683C563.373 263.276 563.685 262.977 563.98 262.786C564.283 262.595 564.599 262.5 564.929 262.5C565.033 262.5 565.132 262.513 565.228 262.539L565.111 263.826C564.998 263.8 564.868 263.787 564.721 263.787C564.4 263.787 564.097 263.861 563.811 264.008C563.525 264.147 563.317 264.311 563.187 264.502V269H561.939V262.63ZM566.052 259.9H567.222V261.2H566.052V259.9ZM566.052 262.63H567.222V269H566.052V262.63ZM571.94 262.5C572.512 262.5 573.014 262.652 573.448 262.955C573.89 263.258 574.228 263.666 574.462 264.177C574.696 264.68 574.813 265.226 574.813 265.815C574.813 266.422 574.683 266.981 574.423 267.492C574.171 267.995 573.825 268.393 573.383 268.688C572.949 268.983 572.468 269.13 571.94 269.13C571.55 269.13 571.173 269.052 570.809 268.896C570.445 268.731 570.163 268.506 569.964 268.22L569.834 269H568.794V259.25H569.964V263.371C570.198 263.102 570.488 262.89 570.835 262.734C571.19 262.578 571.558 262.5 571.94 262.5ZM571.797 268.09C572.343 268.09 572.78 267.873 573.11 267.44C573.448 266.998 573.617 266.456 573.617 265.815C573.617 265.156 573.448 264.615 573.11 264.19C572.78 263.757 572.343 263.54 571.797 263.54C571.259 263.54 570.809 263.739 570.445 264.138C570.081 264.528 569.899 265.087 569.899 265.815C569.899 266.569 570.076 267.137 570.432 267.518C570.796 267.899 571.251 268.09 571.797 268.09ZM581.244 262.63V269H580.204L580.074 268.298C579.866 268.584 579.619 268.796 579.333 268.935C579.055 269.065 578.713 269.13 578.306 269.13C577.543 269.13 576.958 268.9 576.551 268.441C576.152 267.973 575.953 267.271 575.953 266.335V262.63H577.123V266.01C577.123 266.703 577.24 267.223 577.474 267.57C577.716 267.917 578.093 268.09 578.605 268.09C578.908 268.09 579.19 268.029 579.45 267.908C579.718 267.787 579.926 267.609 580.074 267.375V262.63H581.244ZM585.032 269.13C584.469 269.13 584.048 268.983 583.771 268.688C583.502 268.393 583.368 268.034 583.368 267.609V263.54H582.276L582.38 262.63H583.368V261.057L584.538 260.94V262.63H586.215V263.54H584.538V266.894C584.538 267.336 584.564 267.639 584.616 267.804C584.668 267.969 584.776 268.077 584.941 268.129C585.114 268.172 585.426 268.194 585.877 268.194H586.176L586.085 269.13H585.032ZM590.219 269.13C589.491 269.13 588.867 268.983 588.347 268.688C587.836 268.385 587.446 267.977 587.177 267.466C586.908 266.955 586.774 266.387 586.774 265.763C586.774 265.165 586.895 264.619 587.138 264.125C587.389 263.622 587.749 263.228 588.217 262.942C588.694 262.647 589.253 262.5 589.894 262.5C590.709 262.5 591.367 262.738 591.87 263.215C592.381 263.692 592.637 264.35 592.637 265.191C592.637 265.408 592.62 265.616 592.585 265.815H587.97C588.048 266.638 588.299 267.223 588.724 267.57C589.149 267.917 589.695 268.09 590.362 268.09C591.029 268.09 591.64 267.964 592.195 267.713L592.351 268.636C591.614 268.965 590.904 269.13 590.219 269.13ZM591.428 265.009C591.428 264.55 591.298 264.19 591.038 263.93C590.778 263.67 590.388 263.54 589.868 263.54C589.365 263.54 588.971 263.666 588.685 263.917C588.399 264.16 588.195 264.524 588.074 265.009H591.428ZM599.458 259.25V269H598.418L598.288 268.22C598.072 268.515 597.79 268.74 597.443 268.896C597.097 269.052 596.728 269.13 596.338 269.13C595.801 269.13 595.311 268.983 594.869 268.688C594.427 268.393 594.076 267.995 593.816 267.492C593.565 266.989 593.439 266.435 593.439 265.828C593.439 265.239 593.556 264.688 593.79 264.177C594.033 263.666 594.375 263.258 594.817 262.955C595.259 262.652 595.766 262.5 596.338 262.5C596.72 262.5 597.079 262.569 597.417 262.708C597.755 262.847 598.046 263.059 598.288 263.345V259.25H599.458ZM596.546 268.09C596.858 268.09 597.157 268.012 597.443 267.856C597.729 267.691 597.963 267.44 598.145 267.102C598.327 266.764 598.418 266.339 598.418 265.828C598.418 265.351 598.327 264.94 598.145 264.593C597.963 264.246 597.725 263.986 597.43 263.813C597.144 263.631 596.85 263.54 596.546 263.54C595.957 263.54 595.489 263.757 595.142 264.19C594.804 264.615 594.635 265.161 594.635 265.828C594.635 266.469 594.809 267.007 595.155 267.44C595.502 267.873 595.966 268.09 596.546 268.09ZM600.624 270.768C601.118 269.945 601.508 269.069 601.794 268.142C602.08 267.206 602.223 266.162 602.223 265.009C602.223 263.856 602.08 262.816 601.794 261.889C601.508 260.953 601.118 260.073 600.624 259.25H601.651C602.197 260.047 602.622 260.905 602.925 261.824C603.237 262.743 603.393 263.804 603.393 265.009C603.393 266.214 603.237 267.275 602.925 268.194C602.622 269.113 602.197 269.971 601.651 270.768H600.624Z" fill="white"/>
<path d="M382 91H684V122.932H382V91Z" fill="#8C1515"/>
<path d="M494.912 111.13C494.219 111.13 493.621 110.987 493.118 110.701C492.624 110.415 492.252 110.025 492 109.531C491.749 109.028 491.623 108.469 491.623 107.854C491.623 106.849 491.905 106.038 492.468 105.423C493.04 104.808 493.885 104.5 495.003 104.5C495.662 104.5 496.243 104.626 496.745 104.877L496.563 105.904C496.035 105.661 495.506 105.54 494.977 105.54C494.284 105.54 493.751 105.739 493.378 106.138C493.006 106.528 492.819 107.083 492.819 107.802C492.819 108.521 492.997 109.085 493.352 109.492C493.716 109.899 494.249 110.103 494.951 110.103C495.515 110.103 496.056 109.973 496.576 109.713L496.732 110.649C496.542 110.779 496.277 110.892 495.939 110.987C495.61 111.082 495.268 111.13 494.912 111.13ZM500.584 111.13C499.934 111.13 499.37 110.987 498.894 110.701C498.417 110.406 498.053 110.008 497.802 109.505C497.55 109.002 497.425 108.439 497.425 107.815C497.425 107.191 497.55 106.628 497.802 106.125C498.053 105.622 498.417 105.228 498.894 104.942C499.37 104.647 499.934 104.5 500.584 104.5C501.225 104.5 501.784 104.647 502.261 104.942C502.746 105.228 503.114 105.622 503.366 106.125C503.617 106.628 503.743 107.191 503.743 107.815C503.743 108.439 503.617 109.002 503.366 109.505C503.114 110.008 502.746 110.406 502.261 110.701C501.784 110.987 501.225 111.13 500.584 111.13ZM500.584 110.09C501.208 110.09 501.689 109.891 502.027 109.492C502.373 109.093 502.547 108.534 502.547 107.815C502.547 107.096 502.373 106.537 502.027 106.138C501.689 105.739 501.208 105.54 500.584 105.54C499.96 105.54 499.474 105.739 499.128 106.138C498.79 106.537 498.621 107.096 498.621 107.815C498.621 108.534 498.79 109.093 499.128 109.492C499.474 109.891 499.96 110.09 500.584 110.09ZM508.095 104.5C509.829 104.5 510.695 105.497 510.695 107.49V111H509.525V107.49C509.525 106.805 509.395 106.311 509.135 106.008C508.884 105.696 508.459 105.54 507.861 105.54C507.48 105.54 507.133 105.609 506.821 105.748C506.509 105.887 506.275 106.095 506.119 106.372V111H504.949V104.63H505.859L505.989 105.306C506.327 105.003 506.665 104.795 507.003 104.682C507.35 104.561 507.714 104.5 508.095 104.5ZM511.37 104.63H512.67L514.451 109.713L516.219 104.63H517.532L515.114 111H513.801L511.37 104.63ZM528.8 104.5C530.43 104.5 531.244 105.414 531.244 107.243V111H530.074V107.256C530.074 106.658 529.957 106.225 529.723 105.956C529.489 105.679 529.108 105.54 528.579 105.54C527.453 105.54 526.889 106.129 526.889 107.308V111H525.719V107.49C525.719 106.762 525.589 106.255 525.329 105.969C525.078 105.683 524.71 105.54 524.224 105.54C523.843 105.54 523.505 105.609 523.21 105.748C522.916 105.887 522.69 106.095 522.534 106.372V111H521.364V104.63H522.274L522.404 105.306C522.725 105.02 523.046 104.816 523.366 104.695C523.696 104.565 524.047 104.5 524.419 104.5C525.39 104.5 526.075 104.925 526.473 105.774C526.915 104.925 527.691 104.5 528.8 104.5ZM535.547 111.13C534.897 111.13 534.333 110.987 533.857 110.701C533.38 110.406 533.016 110.008 532.765 109.505C532.513 109.002 532.388 108.439 532.388 107.815C532.388 107.191 532.513 106.628 532.765 106.125C533.016 105.622 533.38 105.228 533.857 104.942C534.333 104.647 534.897 104.5 535.547 104.5C536.188 104.5 536.747 104.647 537.224 104.942C537.709 105.228 538.077 105.622 538.329 106.125C538.58 106.628 538.706 107.191 538.706 107.815C538.706 108.439 538.58 109.002 538.329 109.505C538.077 110.008 537.709 110.406 537.224 110.701C536.747 110.987 536.188 111.13 535.547 111.13ZM535.547 110.09C536.171 110.09 536.652 109.891 536.99 109.492C537.336 109.093 537.51 108.534 537.51 107.815C537.51 107.096 537.336 106.537 536.99 106.138C536.652 105.739 536.171 105.54 535.547 105.54C534.923 105.54 534.437 105.739 534.091 106.138C533.753 106.537 533.584 107.096 533.584 107.815C533.584 108.534 533.753 109.093 534.091 109.492C534.437 109.891 534.923 110.09 535.547 110.09ZM545.554 101.25V111H544.514L544.384 110.22C544.167 110.515 543.886 110.74 543.539 110.896C543.192 111.052 542.824 111.13 542.434 111.13C541.897 111.13 541.407 110.983 540.965 110.688C540.523 110.393 540.172 109.995 539.912 109.492C539.661 108.989 539.535 108.435 539.535 107.828C539.535 107.239 539.652 106.688 539.886 106.177C540.129 105.666 540.471 105.258 540.913 104.955C541.355 104.652 541.862 104.5 542.434 104.5C542.815 104.5 543.175 104.569 543.513 104.708C543.851 104.847 544.141 105.059 544.384 105.345V101.25H545.554ZM542.642 110.09C542.954 110.09 543.253 110.012 543.539 109.856C543.825 109.691 544.059 109.44 544.241 109.102C544.423 108.764 544.514 108.339 544.514 107.828C544.514 107.351 544.423 106.94 544.241 106.593C544.059 106.246 543.821 105.986 543.526 105.813C543.24 105.631 542.945 105.54 542.642 105.54C542.053 105.54 541.585 105.757 541.238 106.19C540.9 106.615 540.731 107.161 540.731 107.828C540.731 108.469 540.904 109.007 541.251 109.44C541.598 109.873 542.061 110.09 542.642 110.09ZM552.349 104.63V111H551.309L551.179 110.298C550.971 110.584 550.724 110.796 550.438 110.935C550.161 111.065 549.818 111.13 549.411 111.13C548.648 111.13 548.063 110.9 547.656 110.441C547.257 109.973 547.058 109.271 547.058 108.335V104.63H548.228V108.01C548.228 108.703 548.345 109.223 548.579 109.57C548.822 109.917 549.199 110.09 549.71 110.09C550.013 110.09 550.295 110.029 550.555 109.908C550.824 109.787 551.032 109.609 551.179 109.375V104.63H552.349ZM555.578 111.13C555.006 111.13 554.586 110.983 554.317 110.688C554.057 110.393 553.927 110.029 553.927 109.596V101.25H555.097V108.92C555.097 109.301 555.119 109.579 555.162 109.752C555.214 109.925 555.31 110.042 555.448 110.103C555.587 110.164 555.812 110.194 556.124 110.194L555.955 111.13H555.578ZM560.004 111.13C559.276 111.13 558.652 110.983 558.132 110.688C557.621 110.385 557.231 109.977 556.962 109.466C556.694 108.955 556.559 108.387 556.559 107.763C556.559 107.165 556.681 106.619 556.923 106.125C557.175 105.622 557.534 105.228 558.002 104.942C558.479 104.647 559.038 104.5 559.679 104.5C560.494 104.5 561.153 104.738 561.655 105.215C562.167 105.692 562.422 106.35 562.422 107.191C562.422 107.408 562.405 107.616 562.37 107.815H557.755C557.833 108.638 558.085 109.223 558.509 109.57C558.934 109.917 559.48 110.09 560.147 110.09C560.815 110.09 561.426 109.964 561.98 109.713L562.136 110.636C561.4 110.965 560.689 111.13 560.004 111.13ZM561.213 107.009C561.213 106.55 561.083 106.19 560.823 105.93C560.563 105.67 560.173 105.54 559.653 105.54C559.151 105.54 558.756 105.666 558.47 105.917C558.184 106.16 557.981 106.524 557.859 107.009H561.213ZM570.266 111.182C569.477 111.182 568.792 110.978 568.212 110.571C567.64 110.164 567.198 109.596 566.886 108.868C566.582 108.14 566.431 107.308 566.431 106.372C566.431 105.445 566.591 104.63 566.912 103.928C567.241 103.226 567.696 102.684 568.277 102.303C568.857 101.913 569.52 101.718 570.266 101.718C571.028 101.718 571.7 101.913 572.281 102.303C572.861 102.684 573.308 103.226 573.62 103.928C573.94 104.63 574.101 105.445 574.101 106.372C574.101 107.308 573.949 108.14 573.646 108.868C573.342 109.596 572.9 110.164 572.32 110.571C571.739 110.978 571.054 111.182 570.266 111.182ZM570.266 110.064C571.072 110.064 571.691 109.743 572.125 109.102C572.567 108.461 572.788 107.551 572.788 106.372C572.788 105.211 572.562 104.331 572.112 103.733C571.67 103.135 571.054 102.836 570.266 102.836C569.512 102.836 568.901 103.139 568.433 103.746C567.973 104.353 567.744 105.228 567.744 106.372C567.744 107.551 567.96 108.461 568.394 109.102C568.836 109.743 569.46 110.064 570.266 110.064Z" fill="white"/>
<path d="M382 153H684V184.932H382V153Z" fill="#8C1515"/>
<path d="M495.693 173.13C495 173.13 494.402 172.987 493.899 172.701C493.405 172.415 493.032 172.025 492.781 171.531C492.53 171.028 492.404 170.469 492.404 169.854C492.404 168.849 492.686 168.038 493.249 167.423C493.821 166.808 494.666 166.5 495.784 166.5C496.443 166.5 497.023 166.626 497.526 166.877L497.344 167.904C496.815 167.661 496.287 167.54 495.758 167.54C495.065 167.54 494.532 167.739 494.159 168.138C493.786 168.528 493.6 169.083 493.6 169.802C493.6 170.521 493.778 171.085 494.133 171.492C494.497 171.899 495.03 172.103 495.732 172.103C496.295 172.103 496.837 171.973 497.357 171.713L497.513 172.649C497.322 172.779 497.058 172.892 496.72 172.987C496.391 173.082 496.048 173.13 495.693 173.13ZM501.365 173.13C500.715 173.13 500.151 172.987 499.675 172.701C499.198 172.406 498.834 172.008 498.583 171.505C498.331 171.002 498.206 170.439 498.206 169.815C498.206 169.191 498.331 168.628 498.583 168.125C498.834 167.622 499.198 167.228 499.675 166.942C500.151 166.647 500.715 166.5 501.365 166.5C502.006 166.5 502.565 166.647 503.042 166.942C503.527 167.228 503.895 167.622 504.147 168.125C504.398 168.628 504.524 169.191 504.524 169.815C504.524 170.439 504.398 171.002 504.147 171.505C503.895 172.008 503.527 172.406 503.042 172.701C502.565 172.987 502.006 173.13 501.365 173.13ZM501.365 172.09C501.989 172.09 502.47 171.891 502.808 171.492C503.154 171.093 503.328 170.534 503.328 169.815C503.328 169.096 503.154 168.537 502.808 168.138C502.47 167.739 501.989 167.54 501.365 167.54C500.741 167.54 500.255 167.739 499.909 168.138C499.571 168.537 499.402 169.096 499.402 169.815C499.402 170.534 499.571 171.093 499.909 171.492C500.255 171.891 500.741 172.09 501.365 172.09ZM508.876 166.5C510.609 166.5 511.476 167.497 511.476 169.49V173H510.306V169.49C510.306 168.805 510.176 168.311 509.916 168.008C509.665 167.696 509.24 167.54 508.642 167.54C508.261 167.54 507.914 167.609 507.602 167.748C507.29 167.887 507.056 168.095 506.9 168.372V173H505.73V166.63H506.64L506.77 167.306C507.108 167.003 507.446 166.795 507.784 166.682C508.131 166.561 508.495 166.5 508.876 166.5ZM512.151 166.63H513.451L515.232 171.713L517 166.63H518.313L515.895 173H514.582L512.151 166.63ZM529.581 166.5C531.21 166.5 532.025 167.414 532.025 169.243V173H530.855V169.256C530.855 168.658 530.738 168.225 530.504 167.956C530.27 167.679 529.889 167.54 529.36 167.54C528.233 167.54 527.67 168.129 527.67 169.308V173H526.5V169.49C526.5 168.762 526.37 168.255 526.11 167.969C525.859 167.683 525.49 167.54 525.005 167.54C524.624 167.54 524.286 167.609 523.991 167.748C523.696 167.887 523.471 168.095 523.315 168.372V173H522.145V166.63H523.055L523.185 167.306C523.506 167.02 523.826 166.816 524.147 166.695C524.476 166.565 524.827 166.5 525.2 166.5C526.171 166.5 526.855 166.925 527.254 167.774C527.696 166.925 528.472 166.5 529.581 166.5ZM536.327 173.13C535.677 173.13 535.114 172.987 534.637 172.701C534.161 172.406 533.797 172.008 533.545 171.505C533.294 171.002 533.168 170.439 533.168 169.815C533.168 169.191 533.294 168.628 533.545 168.125C533.797 167.622 534.161 167.228 534.637 166.942C535.114 166.647 535.677 166.5 536.327 166.5C536.969 166.5 537.528 166.647 538.004 166.942C538.49 167.228 538.858 167.622 539.109 168.125C539.361 168.628 539.486 169.191 539.486 169.815C539.486 170.439 539.361 171.002 539.109 171.505C538.858 172.008 538.49 172.406 538.004 172.701C537.528 172.987 536.969 173.13 536.327 173.13ZM536.327 172.09C536.951 172.09 537.432 171.891 537.77 171.492C538.117 171.093 538.29 170.534 538.29 169.815C538.29 169.096 538.117 168.537 537.77 168.138C537.432 167.739 536.951 167.54 536.327 167.54C535.703 167.54 535.218 167.739 534.871 168.138C534.533 168.537 534.364 169.096 534.364 169.815C534.364 170.534 534.533 171.093 534.871 171.492C535.218 171.891 535.703 172.09 536.327 172.09ZM546.335 163.25V173H545.295L545.165 172.22C544.948 172.515 544.667 172.74 544.32 172.896C543.973 173.052 543.605 173.13 543.215 173.13C542.678 173.13 542.188 172.983 541.746 172.688C541.304 172.393 540.953 171.995 540.693 171.492C540.442 170.989 540.316 170.435 540.316 169.828C540.316 169.239 540.433 168.688 540.667 168.177C540.91 167.666 541.252 167.258 541.694 166.955C542.136 166.652 542.643 166.5 543.215 166.5C543.596 166.5 543.956 166.569 544.294 166.708C544.632 166.847 544.922 167.059 545.165 167.345V163.25H546.335ZM543.423 172.09C543.735 172.09 544.034 172.012 544.32 171.856C544.606 171.691 544.84 171.44 545.022 171.102C545.204 170.764 545.295 170.339 545.295 169.828C545.295 169.351 545.204 168.94 545.022 168.593C544.84 168.246 544.602 167.986 544.307 167.813C544.021 167.631 543.726 167.54 543.423 167.54C542.834 167.54 542.366 167.757 542.019 168.19C541.681 168.615 541.512 169.161 541.512 169.828C541.512 170.469 541.685 171.007 542.032 171.44C542.379 171.873 542.842 172.09 543.423 172.09ZM553.13 166.63V173H552.09L551.96 172.298C551.752 172.584 551.505 172.796 551.219 172.935C550.942 173.065 550.599 173.13 550.192 173.13C549.429 173.13 548.844 172.9 548.437 172.441C548.038 171.973 547.839 171.271 547.839 170.335V166.63H549.009V170.01C549.009 170.703 549.126 171.223 549.36 171.57C549.603 171.917 549.98 172.09 550.491 172.09C550.794 172.09 551.076 172.029 551.336 171.908C551.605 171.787 551.813 171.609 551.96 171.375V166.63H553.13ZM556.359 173.13C555.787 173.13 555.367 172.983 555.098 172.688C554.838 172.393 554.708 172.029 554.708 171.596V163.25H555.878V170.92C555.878 171.301 555.9 171.579 555.943 171.752C555.995 171.925 556.091 172.042 556.229 172.103C556.368 172.164 556.593 172.194 556.905 172.194L556.736 173.13H556.359ZM560.785 173.13C560.057 173.13 559.433 172.983 558.913 172.688C558.402 172.385 558.012 171.977 557.743 171.466C557.474 170.955 557.34 170.387 557.34 169.763C557.34 169.165 557.461 168.619 557.704 168.125C557.955 167.622 558.315 167.228 558.783 166.942C559.26 166.647 559.819 166.5 560.46 166.5C561.275 166.5 561.933 166.738 562.436 167.215C562.947 167.692 563.203 168.35 563.203 169.191C563.203 169.408 563.186 169.616 563.151 169.815H558.536C558.614 170.638 558.865 171.223 559.29 171.57C559.715 171.917 560.261 172.09 560.928 172.09C561.595 172.09 562.206 171.964 562.761 171.713L562.917 172.636C562.18 172.965 561.47 173.13 560.785 173.13ZM561.994 169.009C561.994 168.55 561.864 168.19 561.604 167.93C561.344 167.67 560.954 167.54 560.434 167.54C559.931 167.54 559.537 167.666 559.251 167.917C558.965 168.16 558.761 168.524 558.64 169.009H561.994ZM573.672 169.594V170.647H572.502V173H571.254V170.647H566.769L571.605 163.9H572.502V169.594H573.672ZM571.254 169.594V166.201L568.836 169.594H571.254Z" fill="white"/>
<path d="M382 123H684V133H382V123Z" fill="#E0E0E0"/>
<path d="M382 143H684V153H382V143Z" fill="#E0E0E0"/>
<path d="M382 133H684V143H382V133Z" fill="#8C1515"/>
<path d="M12 123.424H326V155.356H12V123.424Z" fill="#E0E0E0"/>
<path d="M142.66 136.924C143.232 136.924 143.735 137.075 144.168 137.379C144.61 137.682 144.948 138.089 145.182 138.601C145.416 139.103 145.533 139.649 145.533 140.239C145.533 140.845 145.403 141.404 145.143 141.916C144.892 142.418 144.545 142.817 144.103 143.112C143.67 143.406 143.189 143.554 142.66 143.554C142.27 143.554 141.893 143.476 141.529 143.32C141.165 143.155 140.884 142.93 140.684 142.644L140.554 143.424H139.514V133.674H140.684V137.795C140.918 137.526 141.209 137.314 141.555 137.158C141.911 137.002 142.279 136.924 142.66 136.924ZM142.517 142.514C143.063 142.514 143.501 142.297 143.83 141.864C144.168 141.422 144.337 140.88 144.337 140.239C144.337 139.58 144.168 139.038 143.83 138.614C143.501 138.18 143.063 137.964 142.517 137.964C141.98 137.964 141.529 138.163 141.165 138.562C140.801 138.952 140.619 139.511 140.619 140.239C140.619 140.993 140.797 141.56 141.152 141.942C141.516 142.323 141.971 142.514 142.517 142.514ZM148.22 143.554C147.631 143.554 147.154 143.38 146.79 143.034C146.435 142.687 146.257 142.245 146.257 141.708C146.257 140.902 146.639 140.325 147.401 139.979C148.164 139.632 149.052 139.45 150.066 139.433C150.066 138.861 149.954 138.475 149.728 138.276C149.512 138.068 149.161 137.964 148.675 137.964C148.407 137.964 148.138 138.007 147.869 138.094C147.601 138.172 147.31 138.319 146.998 138.536L146.829 137.587C147.089 137.387 147.41 137.227 147.791 137.106C148.173 136.984 148.571 136.924 148.987 136.924C149.533 136.924 149.967 137.019 150.287 137.21C150.617 137.4 150.855 137.717 151.002 138.159C151.158 138.601 151.236 139.207 151.236 139.979V141.279C151.236 141.625 151.249 141.89 151.275 142.072C151.31 142.245 151.379 142.379 151.483 142.475C151.587 142.57 151.748 142.618 151.964 142.618H152.081L151.899 143.554H151.808C151.444 143.554 151.158 143.519 150.95 143.45C150.742 143.38 150.582 143.281 150.469 143.151C150.365 143.021 150.266 142.843 150.17 142.618C149.633 143.242 148.983 143.554 148.22 143.554ZM148.441 142.618C148.753 142.618 149.052 142.54 149.338 142.384C149.633 142.228 149.876 142.02 150.066 141.76V140.239C149.13 140.273 148.459 140.399 148.051 140.616C147.653 140.824 147.453 141.166 147.453 141.643C147.453 141.972 147.54 142.219 147.713 142.384C147.895 142.54 148.138 142.618 148.441 142.618ZM155.054 143.554C154.491 143.554 154.071 143.406 153.793 143.112C153.525 142.817 153.39 142.457 153.39 142.033V137.964H152.298L152.402 137.054H153.39V135.481L154.56 135.364V137.054H156.237V137.964H154.56V141.318C154.56 141.76 154.586 142.063 154.638 142.228C154.69 142.392 154.799 142.501 154.963 142.553C155.137 142.596 155.449 142.618 155.899 142.618H156.198L156.107 143.554H155.054ZM160.112 143.554C159.418 143.554 158.82 143.411 158.318 143.125C157.824 142.839 157.451 142.449 157.2 141.955C156.948 141.452 156.823 140.893 156.823 140.278C156.823 139.272 157.104 138.462 157.668 137.847C158.24 137.231 159.085 136.924 160.203 136.924C160.861 136.924 161.442 137.049 161.945 137.301L161.763 138.328C161.234 138.085 160.705 137.964 160.177 137.964C159.483 137.964 158.95 138.163 158.578 138.562C158.205 138.952 158.019 139.506 158.019 140.226C158.019 140.945 158.196 141.508 158.552 141.916C158.916 142.323 159.449 142.527 160.151 142.527C160.714 142.527 161.256 142.397 161.776 142.137L161.932 143.073C161.741 143.203 161.477 143.315 161.139 143.411C160.809 143.506 160.467 143.554 160.112 143.554ZM166.132 136.924C166.938 136.924 167.553 137.188 167.978 137.717C168.403 138.245 168.615 138.965 168.615 139.875V143.424H167.445V140.018C167.445 139.316 167.315 138.8 167.055 138.471C166.804 138.133 166.409 137.964 165.872 137.964C165.543 137.964 165.239 138.042 164.962 138.198C164.685 138.345 164.451 138.557 164.26 138.835V143.424H163.077V133.674H164.26V137.665C164.511 137.422 164.784 137.24 165.079 137.119C165.382 136.989 165.733 136.924 166.132 136.924ZM173.282 136.924C175.015 136.924 175.882 137.92 175.882 139.914V143.424H174.712V139.914C174.712 139.229 174.582 138.735 174.322 138.432C174.07 138.12 173.646 137.964 173.048 137.964C172.666 137.964 172.32 138.033 172.008 138.172C171.696 138.31 171.462 138.518 171.306 138.796V143.424H170.136V137.054H171.046L171.176 137.73C171.514 137.426 171.852 137.218 172.19 137.106C172.536 136.984 172.9 136.924 173.282 136.924ZM180.179 143.554C179.529 143.554 178.966 143.411 178.489 143.125C178.013 142.83 177.649 142.431 177.397 141.929C177.146 141.426 177.02 140.863 177.02 140.239C177.02 139.615 177.146 139.051 177.397 138.549C177.649 138.046 178.013 137.652 178.489 137.366C178.966 137.071 179.529 136.924 180.179 136.924C180.821 136.924 181.38 137.071 181.856 137.366C182.342 137.652 182.71 138.046 182.961 138.549C183.213 139.051 183.338 139.615 183.338 140.239C183.338 140.863 183.213 141.426 182.961 141.929C182.71 142.431 182.342 142.83 181.856 143.125C181.38 143.411 180.821 143.554 180.179 143.554ZM180.179 142.514C180.803 142.514 181.284 142.314 181.622 141.916C181.969 141.517 182.142 140.958 182.142 140.239C182.142 139.519 181.969 138.96 181.622 138.562C181.284 138.163 180.803 137.964 180.179 137.964C179.555 137.964 179.07 138.163 178.723 138.562C178.385 138.96 178.216 139.519 178.216 140.239C178.216 140.958 178.385 141.517 178.723 141.916C179.07 142.314 179.555 142.514 180.179 142.514ZM184.545 137.054H185.507L185.65 138.107C185.979 137.699 186.291 137.4 186.586 137.21C186.889 137.019 187.206 136.924 187.535 136.924C187.639 136.924 187.739 136.937 187.834 136.963L187.717 138.25C187.604 138.224 187.474 138.211 187.327 138.211C187.006 138.211 186.703 138.284 186.417 138.432C186.131 138.57 185.923 138.735 185.793 138.926V143.424H184.545V137.054ZM196.094 136.924C197.724 136.924 198.538 137.838 198.538 139.667V143.424H197.368V139.68C197.368 139.082 197.251 138.648 197.017 138.38C196.783 138.102 196.402 137.964 195.873 137.964C194.747 137.964 194.183 138.553 194.183 139.732V143.424H193.013V139.914C193.013 139.186 192.883 138.679 192.623 138.393C192.372 138.107 192.004 137.964 191.518 137.964C191.137 137.964 190.799 138.033 190.504 138.172C190.21 138.31 189.984 138.518 189.828 138.796V143.424H188.658V137.054H189.568L189.698 137.73C190.019 137.444 190.34 137.24 190.66 137.119C190.99 136.989 191.341 136.924 191.713 136.924C192.684 136.924 193.369 137.348 193.767 138.198C194.209 137.348 194.985 136.924 196.094 136.924Z" fill="#333333"/>
<path d="M382 217H684V248.932H382V217Z" fill="#E0E0E0"/>
<path d="M442.956 231.54H441.851L442.007 230.63H442.956V229.122C442.956 228.541 443.107 228.086 443.411 227.757C443.723 227.419 444.169 227.25 444.75 227.25C445.131 227.25 445.469 227.306 445.764 227.419L445.582 228.407C445.374 228.329 445.157 228.29 444.932 228.29C444.394 228.29 444.126 228.593 444.126 229.2V230.63H445.842V231.54H444.126V237H442.956V231.54ZM452.043 230.63V237H451.003L450.873 236.298C450.665 236.584 450.418 236.796 450.132 236.935C449.855 237.065 449.513 237.13 449.105 237.13C448.343 237.13 447.758 236.9 447.35 236.441C446.952 235.973 446.752 235.271 446.752 234.335V230.63H447.922V234.01C447.922 234.703 448.039 235.223 448.273 235.57C448.516 235.917 448.893 236.09 449.404 236.09C449.708 236.09 449.989 236.029 450.249 235.908C450.518 235.787 450.726 235.609 450.873 235.375V230.63H452.043ZM455.273 237.13C454.701 237.13 454.28 236.983 454.012 236.688C453.752 236.393 453.622 236.029 453.622 235.596V227.25H454.792V234.92C454.792 235.301 454.813 235.579 454.857 235.752C454.909 235.925 455.004 236.042 455.143 236.103C455.281 236.164 455.507 236.194 455.819 236.194L455.65 237.13H455.273ZM458.345 237.13C457.773 237.13 457.353 236.983 457.084 236.688C456.824 236.393 456.694 236.029 456.694 235.596V227.25H457.864V234.92C457.864 235.301 457.886 235.579 457.929 235.752C457.981 235.925 458.076 236.042 458.215 236.103C458.354 236.164 458.579 236.194 458.891 236.194L458.722 237.13H458.345ZM461.64 236.714L458.988 230.63H460.288L462.277 235.362L464.071 230.63H465.371L461.471 240.146H460.171L461.64 236.714ZM472.099 237.13C471.406 237.13 470.808 236.987 470.305 236.701C469.811 236.415 469.438 236.025 469.187 235.531C468.936 235.028 468.81 234.469 468.81 233.854C468.81 232.849 469.092 232.038 469.655 231.423C470.227 230.808 471.072 230.5 472.19 230.5C472.849 230.5 473.429 230.626 473.932 230.877L473.75 231.904C473.221 231.661 472.693 231.54 472.164 231.54C471.471 231.54 470.938 231.739 470.565 232.138C470.192 232.528 470.006 233.083 470.006 233.802C470.006 234.521 470.184 235.085 470.539 235.492C470.903 235.899 471.436 236.103 472.138 236.103C472.701 236.103 473.243 235.973 473.763 235.713L473.919 236.649C473.728 236.779 473.464 236.892 473.126 236.987C472.797 237.082 472.454 237.13 472.099 237.13ZM477.77 237.13C477.12 237.13 476.557 236.987 476.08 236.701C475.604 236.406 475.24 236.008 474.988 235.505C474.737 235.002 474.611 234.439 474.611 233.815C474.611 233.191 474.737 232.628 474.988 232.125C475.24 231.622 475.604 231.228 476.08 230.942C476.557 230.647 477.12 230.5 477.77 230.5C478.412 230.5 478.971 230.647 479.447 230.942C479.933 231.228 480.301 231.622 480.552 232.125C480.804 232.628 480.929 233.191 480.929 233.815C480.929 234.439 480.804 235.002 480.552 235.505C480.301 236.008 479.933 236.406 479.447 236.701C478.971 236.987 478.412 237.13 477.77 237.13ZM477.77 236.09C478.394 236.09 478.875 235.891 479.213 235.492C479.56 235.093 479.733 234.534 479.733 233.815C479.733 233.096 479.56 232.537 479.213 232.138C478.875 231.739 478.394 231.54 477.77 231.54C477.146 231.54 476.661 231.739 476.314 232.138C475.976 232.537 475.807 233.096 475.807 233.815C475.807 234.534 475.976 235.093 476.314 235.492C476.661 235.891 477.146 236.09 477.77 236.09ZM485.282 230.5C487.015 230.5 487.882 231.497 487.882 233.49V237H486.712V233.49C486.712 232.805 486.582 232.311 486.322 232.008C486.07 231.696 485.646 231.54 485.048 231.54C484.666 231.54 484.32 231.609 484.008 231.748C483.696 231.887 483.462 232.095 483.306 232.372V237H482.136V230.63H483.046L483.176 231.306C483.514 231.003 483.852 230.795 484.19 230.682C484.536 230.561 484.9 230.5 485.282 230.5ZM492.543 230.5C494.277 230.5 495.143 231.497 495.143 233.49V237H493.973V233.49C493.973 232.805 493.843 232.311 493.583 232.008C493.332 231.696 492.907 231.54 492.309 231.54C491.928 231.54 491.581 231.609 491.269 231.748C490.957 231.887 490.723 232.095 490.567 232.372V237H489.397V230.63H490.307L490.437 231.306C490.775 231.003 491.113 230.795 491.451 230.682C491.798 230.561 492.162 230.5 492.543 230.5ZM499.714 237.13C498.986 237.13 498.362 236.983 497.842 236.688C497.331 236.385 496.941 235.977 496.672 235.466C496.404 234.955 496.269 234.387 496.269 233.763C496.269 233.165 496.391 232.619 496.633 232.125C496.885 231.622 497.244 231.228 497.712 230.942C498.189 230.647 498.748 230.5 499.389 230.5C500.204 230.5 500.863 230.738 501.365 231.215C501.877 231.692 502.132 232.35 502.132 233.191C502.132 233.408 502.115 233.616 502.08 233.815H497.465C497.543 234.638 497.795 235.223 498.219 235.57C498.644 235.917 499.19 236.09 499.857 236.09C500.525 236.09 501.136 235.964 501.69 235.713L501.846 236.636C501.11 236.965 500.399 237.13 499.714 237.13ZM500.923 233.009C500.923 232.55 500.793 232.19 500.533 231.93C500.273 231.67 499.883 231.54 499.363 231.54C498.861 231.54 498.466 231.666 498.18 231.917C497.894 232.16 497.691 232.524 497.569 233.009H500.923ZM506.237 237.13C505.543 237.13 504.945 236.987 504.443 236.701C503.949 236.415 503.576 236.025 503.325 235.531C503.073 235.028 502.948 234.469 502.948 233.854C502.948 232.849 503.229 232.038 503.793 231.423C504.365 230.808 505.21 230.5 506.328 230.5C506.986 230.5 507.567 230.626 508.07 230.877L507.888 231.904C507.359 231.661 506.83 231.54 506.302 231.54C505.608 231.54 505.075 231.739 504.703 232.138C504.33 232.528 504.144 233.083 504.144 233.802C504.144 234.521 504.321 235.085 504.677 235.492C505.041 235.899 505.574 236.103 506.276 236.103C506.839 236.103 507.381 235.973 507.901 235.713L508.057 236.649C507.866 236.779 507.602 236.892 507.264 236.987C506.934 237.082 506.592 237.13 506.237 237.13ZM511.412 237.13C510.849 237.13 510.428 236.983 510.151 236.688C509.882 236.393 509.748 236.034 509.748 235.609V231.54H508.656L508.76 230.63H509.748V229.057L510.918 228.94V230.63H512.595V231.54H510.918V234.894C510.918 235.336 510.944 235.639 510.996 235.804C511.048 235.969 511.156 236.077 511.321 236.129C511.494 236.172 511.806 236.194 512.257 236.194H512.556L512.465 237.13H511.412ZM516.599 237.13C515.871 237.13 515.247 236.983 514.727 236.688C514.216 236.385 513.826 235.977 513.557 235.466C513.288 234.955 513.154 234.387 513.154 233.763C513.154 233.165 513.275 232.619 513.518 232.125C513.769 231.622 514.129 231.228 514.597 230.942C515.074 230.647 515.633 230.5 516.274 230.5C517.089 230.5 517.747 230.738 518.25 231.215C518.761 231.692 519.017 232.35 519.017 233.191C519.017 233.408 519 233.616 518.965 233.815H514.35C514.428 234.638 514.679 235.223 515.104 235.57C515.529 235.917 516.075 236.09 516.742 236.09C517.409 236.09 518.02 235.964 518.575 235.713L518.731 236.636C517.994 236.965 517.284 237.13 516.599 237.13ZM517.808 233.009C517.808 232.55 517.678 232.19 517.418 231.93C517.158 231.67 516.768 231.54 516.248 231.54C515.745 231.54 515.351 231.666 515.065 231.917C514.779 232.16 514.575 232.524 514.454 233.009H517.808ZM525.838 227.25V237H524.798L524.668 236.22C524.452 236.515 524.17 236.74 523.823 236.896C523.477 237.052 523.108 237.13 522.718 237.13C522.181 237.13 521.691 236.983 521.249 236.688C520.807 236.393 520.456 235.995 520.196 235.492C519.945 234.989 519.819 234.435 519.819 233.828C519.819 233.239 519.936 232.688 520.17 232.177C520.413 231.666 520.755 231.258 521.197 230.955C521.639 230.652 522.146 230.5 522.718 230.5C523.1 230.5 523.459 230.569 523.797 230.708C524.135 230.847 524.426 231.059 524.668 231.345V227.25H525.838ZM522.926 236.09C523.238 236.09 523.537 236.012 523.823 235.856C524.109 235.691 524.343 235.44 524.525 235.102C524.707 234.764 524.798 234.339 524.798 233.828C524.798 233.351 524.707 232.94 524.525 232.593C524.343 232.246 524.105 231.986 523.81 231.813C523.524 231.631 523.23 231.54 522.926 231.54C522.337 231.54 521.869 231.757 521.522 232.19C521.184 232.615 521.015 233.161 521.015 233.828C521.015 234.469 521.189 235.007 521.535 235.44C521.882 235.873 522.346 236.09 522.926 236.09ZM532.186 238.768C531.64 237.971 531.211 237.113 530.899 236.194C530.596 235.275 530.444 234.214 530.444 233.009C530.444 231.804 530.596 230.743 530.899 229.824C531.211 228.905 531.64 228.047 532.186 227.25H533.213C532.719 228.073 532.329 228.953 532.043 229.889C531.757 230.816 531.614 231.856 531.614 233.009C531.614 234.162 531.757 235.206 532.043 236.142C532.329 237.069 532.719 237.945 533.213 238.768H532.186ZM536.269 237.13C535.706 237.13 535.286 236.983 535.008 236.688C534.74 236.393 534.605 236.034 534.605 235.609V231.54H533.513L533.617 230.63H534.605V229.057L535.775 228.94V230.63H537.452V231.54H535.775V234.894C535.775 235.336 535.801 235.639 535.853 235.804C535.905 235.969 536.014 236.077 536.178 236.129C536.352 236.172 536.664 236.194 537.114 236.194H537.413L537.322 237.13H536.269ZM538.452 227.9H539.622V229.2H538.452V227.9ZM538.452 230.63H539.622V237H538.452V230.63ZM548.643 230.5C550.272 230.5 551.087 231.414 551.087 233.243V237H549.917V233.256C549.917 232.658 549.8 232.225 549.566 231.956C549.332 231.679 548.951 231.54 548.422 231.54C547.295 231.54 546.732 232.129 546.732 233.308V237H545.562V233.49C545.562 232.762 545.432 232.255 545.172 231.969C544.921 231.683 544.552 231.54 544.067 231.54C543.686 231.54 543.348 231.609 543.053 231.748C542.758 231.887 542.533 232.095 542.377 232.372V237H541.207V230.63H542.117L542.247 231.306C542.568 231.02 542.888 230.816 543.209 230.695C543.538 230.565 543.889 230.5 544.262 230.5C545.233 230.5 545.917 230.925 546.316 231.774C546.758 230.925 547.534 230.5 548.643 230.5ZM555.662 237.13C554.934 237.13 554.31 236.983 553.79 236.688C553.279 236.385 552.889 235.977 552.62 235.466C552.352 234.955 552.217 234.387 552.217 233.763C552.217 233.165 552.339 232.619 552.581 232.125C552.833 231.622 553.192 231.228 553.66 230.942C554.137 230.647 554.696 230.5 555.337 230.5C556.152 230.5 556.811 230.738 557.313 231.215C557.825 231.692 558.08 232.35 558.08 233.191C558.08 233.408 558.063 233.616 558.028 233.815H553.413C553.491 234.638 553.743 235.223 554.167 235.57C554.592 235.917 555.138 236.09 555.805 236.09C556.473 236.09 557.084 235.964 557.638 235.713L557.794 236.636C557.058 236.965 556.347 237.13 555.662 237.13ZM556.871 233.009C556.871 232.55 556.741 232.19 556.481 231.93C556.221 231.67 555.831 231.54 555.311 231.54C554.809 231.54 554.414 231.666 554.128 231.917C553.842 232.16 553.639 232.524 553.517 233.009H556.871ZM567.822 227.25V237H566.782L566.652 236.22C566.435 236.515 566.153 236.74 565.807 236.896C565.46 237.052 565.092 237.13 564.702 237.13C564.164 237.13 563.675 236.983 563.233 236.688C562.791 236.393 562.44 235.995 562.18 235.492C561.928 234.989 561.803 234.435 561.803 233.828C561.803 233.239 561.92 232.688 562.154 232.177C562.396 231.666 562.739 231.258 563.181 230.955C563.623 230.652 564.13 230.5 564.702 230.5C565.083 230.5 565.443 230.569 565.781 230.708C566.119 230.847 566.409 231.059 566.652 231.345V227.25H567.822ZM564.91 236.09C565.222 236.09 565.521 236.012 565.807 235.856C566.093 235.691 566.327 235.44 566.509 235.102C566.691 234.764 566.782 234.339 566.782 233.828C566.782 233.351 566.691 232.94 566.509 232.593C566.327 232.246 566.088 231.986 565.794 231.813C565.508 231.631 565.213 231.54 564.91 231.54C564.32 231.54 563.852 231.757 563.506 232.19C563.168 232.615 562.999 233.161 562.999 233.828C562.999 234.469 563.172 235.007 563.519 235.44C563.865 235.873 564.329 236.09 564.91 236.09ZM569.391 227.9H570.561V229.2H569.391V227.9ZM569.391 230.63H570.561V237H569.391V230.63ZM573.953 237.13C573.45 237.13 573.008 237.074 572.627 236.961C572.254 236.84 571.968 236.71 571.769 236.571L571.912 235.44C572.085 235.596 572.349 235.743 572.705 235.882C573.069 236.021 573.467 236.09 573.901 236.09C574.308 236.09 574.62 236.021 574.837 235.882C575.062 235.743 575.175 235.548 575.175 235.297C575.175 235.002 575.053 234.781 574.811 234.634C574.568 234.478 574.265 234.348 573.901 234.244C573.502 234.14 573.164 234.032 572.887 233.919C572.618 233.798 572.384 233.616 572.185 233.373C571.994 233.13 571.899 232.81 571.899 232.411C571.899 231.865 572.094 231.41 572.484 231.046C572.874 230.682 573.476 230.5 574.291 230.5C574.663 230.5 574.98 230.539 575.24 230.617C575.5 230.686 575.76 230.786 576.02 230.916L575.877 231.982C575.669 231.809 575.439 231.674 575.188 231.579C574.936 231.475 574.646 231.423 574.317 231.423C573.935 231.423 573.632 231.497 573.407 231.644C573.19 231.783 573.082 231.995 573.082 232.281C573.082 232.472 573.134 232.628 573.238 232.749C573.342 232.862 573.489 232.957 573.68 233.035C573.87 233.113 574.165 233.213 574.564 233.334C575.058 233.481 575.482 233.689 575.838 233.958C576.202 234.227 576.384 234.651 576.384 235.232C576.384 235.752 576.197 236.198 575.825 236.571C575.461 236.944 574.837 237.13 573.953 237.13ZM579.725 237.13C579.162 237.13 578.742 236.983 578.464 236.688C578.196 236.393 578.061 236.034 578.061 235.609V231.54H576.969L577.073 230.63H578.061V229.057L579.231 228.94V230.63H580.908V231.54H579.231V234.894C579.231 235.336 579.257 235.639 579.309 235.804C579.361 235.969 579.47 236.077 579.634 236.129C579.808 236.172 580.12 236.194 580.57 236.194H580.869L580.778 237.13H579.725ZM581.908 230.63H582.87L583.013 231.683C583.343 231.276 583.655 230.977 583.949 230.786C584.253 230.595 584.569 230.5 584.898 230.5C585.002 230.5 585.102 230.513 585.197 230.539L585.08 231.826C584.968 231.8 584.838 231.787 584.69 231.787C584.37 231.787 584.066 231.861 583.78 232.008C583.494 232.147 583.286 232.311 583.156 232.502V237H581.908V230.63ZM586.022 227.9H587.192V229.2H586.022V227.9ZM586.022 230.63H587.192V237H586.022V230.63ZM591.909 230.5C592.481 230.5 592.984 230.652 593.417 230.955C593.859 231.258 594.197 231.666 594.431 232.177C594.665 232.68 594.782 233.226 594.782 233.815C594.782 234.422 594.652 234.981 594.392 235.492C594.141 235.995 593.794 236.393 593.352 236.688C592.919 236.983 592.438 237.13 591.909 237.13C591.519 237.13 591.142 237.052 590.778 236.896C590.414 236.731 590.133 236.506 589.933 236.22L589.803 237H588.763V227.25H589.933V231.371C590.167 231.102 590.458 230.89 590.804 230.734C591.16 230.578 591.528 230.5 591.909 230.5ZM591.766 236.09C592.312 236.09 592.75 235.873 593.079 235.44C593.417 234.998 593.586 234.456 593.586 233.815C593.586 233.156 593.417 232.615 593.079 232.19C592.75 231.757 592.312 231.54 591.766 231.54C591.229 231.54 590.778 231.739 590.414 232.138C590.05 232.528 589.868 233.087 589.868 233.815C589.868 234.569 590.046 235.137 590.401 235.518C590.765 235.899 591.22 236.09 591.766 236.09ZM601.213 230.63V237H600.173L600.043 236.298C599.835 236.584 599.588 236.796 599.302 236.935C599.025 237.065 598.683 237.13 598.275 237.13C597.513 237.13 596.928 236.9 596.52 236.441C596.122 235.973 595.922 235.271 595.922 234.335V230.63H597.092V234.01C597.092 234.703 597.209 235.223 597.443 235.57C597.686 235.917 598.063 236.09 598.574 236.09C598.878 236.09 599.159 236.029 599.419 235.908C599.688 235.787 599.896 235.609 600.043 235.375V230.63H601.213ZM605.002 237.13C604.438 237.13 604.018 236.983 603.741 236.688C603.472 236.393 603.338 236.034 603.338 235.609V231.54H602.246L602.35 230.63H603.338V229.057L604.508 228.94V230.63H606.185V231.54H604.508V234.894C604.508 235.336 604.534 235.639 604.586 235.804C604.638 235.969 604.746 236.077 604.911 236.129C605.084 236.172 605.396 236.194 605.847 236.194H606.146L606.055 237.13H605.002ZM610.189 237.13C609.461 237.13 608.837 236.983 608.317 236.688C607.805 236.385 607.415 235.977 607.147 235.466C606.878 234.955 606.744 234.387 606.744 233.763C606.744 233.165 606.865 232.619 607.108 232.125C607.359 231.622 607.719 231.228 608.187 230.942C608.663 230.647 609.222 230.5 609.864 230.5C610.678 230.5 611.337 230.738 611.84 231.215C612.351 231.692 612.607 232.35 612.607 233.191C612.607 233.408 612.589 233.616 612.555 233.815H607.94C608.018 234.638 608.269 235.223 608.694 235.57C609.118 235.917 609.664 236.09 610.332 236.09C610.999 236.09 611.61 235.964 612.165 235.713L612.321 236.636C611.584 236.965 610.873 237.13 610.189 237.13ZM611.398 233.009C611.398 232.55 611.268 232.19 611.008 231.93C610.748 231.67 610.358 231.54 609.838 231.54C609.335 231.54 608.941 231.666 608.655 231.917C608.369 232.16 608.165 232.524 608.044 233.009H611.398ZM619.428 227.25V237H618.388L618.258 236.22C618.041 236.515 617.76 236.74 617.413 236.896C617.066 237.052 616.698 237.13 616.308 237.13C615.771 237.13 615.281 236.983 614.839 236.688C614.397 236.393 614.046 235.995 613.786 235.492C613.535 234.989 613.409 234.435 613.409 233.828C613.409 233.239 613.526 232.688 613.76 232.177C614.003 231.666 614.345 231.258 614.787 230.955C615.229 230.652 615.736 230.5 616.308 230.5C616.689 230.5 617.049 230.569 617.387 230.708C617.725 230.847 618.015 231.059 618.258 231.345V227.25H619.428ZM616.516 236.09C616.828 236.09 617.127 236.012 617.413 235.856C617.699 235.691 617.933 235.44 618.115 235.102C618.297 234.764 618.388 234.339 618.388 233.828C618.388 233.351 618.297 232.94 618.115 232.593C617.933 232.246 617.695 231.986 617.4 231.813C617.114 231.631 616.819 231.54 616.516 231.54C615.927 231.54 615.459 231.757 615.112 232.19C614.774 232.615 614.605 233.161 614.605 233.828C614.605 234.469 614.778 235.007 615.125 235.44C615.472 235.873 615.935 236.09 616.516 236.09ZM620.594 238.768C621.088 237.945 621.478 237.069 621.764 236.142C622.05 235.206 622.193 234.162 622.193 233.009C622.193 231.856 622.05 230.816 621.764 229.889C621.478 228.953 621.088 228.073 620.594 227.25H621.621C622.167 228.047 622.592 228.905 622.895 229.824C623.207 230.743 623.363 231.804 623.363 233.009C623.363 234.214 623.207 235.275 622.895 236.194C622.592 237.113 622.167 237.971 621.621 238.768H620.594Z" fill="#333333"/>
<path d="M12 155.356H326V187.288H12V155.356Z" fill="#8C1515"/>
<path d="M145.577 175.486C145.005 175.486 144.585 175.339 144.316 175.044C144.056 174.749 143.926 174.385 143.926 173.952V165.606H145.096V173.276C145.096 173.657 145.118 173.935 145.161 174.108C145.213 174.281 145.308 174.398 145.447 174.459C145.586 174.52 145.811 174.55 146.123 174.55L145.954 175.486H145.577ZM150.003 175.486C149.275 175.486 148.651 175.339 148.131 175.044C147.619 174.741 147.229 174.333 146.961 173.822C146.692 173.311 146.558 172.743 146.558 172.119C146.558 171.521 146.679 170.975 146.922 170.481C147.173 169.978 147.533 169.584 148.001 169.298C148.477 169.003 149.036 168.856 149.678 168.856C150.492 168.856 151.151 169.094 151.654 169.571C152.165 170.048 152.421 170.706 152.421 171.547C152.421 171.764 152.403 171.972 152.369 172.171H147.754C147.832 172.994 148.083 173.579 148.508 173.926C148.932 174.273 149.478 174.446 150.146 174.446C150.813 174.446 151.424 174.32 151.979 174.069L152.135 174.992C151.398 175.321 150.687 175.486 150.003 175.486ZM151.212 171.365C151.212 170.906 151.082 170.546 150.822 170.286C150.562 170.026 150.172 169.896 149.652 169.896C149.149 169.896 148.755 170.022 148.469 170.273C148.183 170.516 147.979 170.88 147.858 171.365H151.212ZM155.082 175.486C154.493 175.486 154.016 175.313 153.652 174.966C153.297 174.619 153.119 174.177 153.119 173.64C153.119 172.834 153.5 172.258 154.263 171.911C155.026 171.564 155.914 171.382 156.928 171.365C156.928 170.793 156.815 170.407 156.59 170.208C156.373 170 156.022 169.896 155.537 169.896C155.268 169.896 155 169.939 154.731 170.026C154.462 170.104 154.172 170.251 153.86 170.468L153.691 169.519C153.951 169.32 154.272 169.159 154.653 169.038C155.034 168.917 155.433 168.856 155.849 168.856C156.395 168.856 156.828 168.951 157.149 169.142C157.478 169.333 157.717 169.649 157.864 170.091C158.02 170.533 158.098 171.14 158.098 171.911V173.211C158.098 173.558 158.111 173.822 158.137 174.004C158.172 174.177 158.241 174.312 158.345 174.407C158.449 174.502 158.609 174.55 158.826 174.55H158.943L158.761 175.486H158.67C158.306 175.486 158.02 175.451 157.812 175.382C157.604 175.313 157.444 175.213 157.331 175.083C157.227 174.953 157.127 174.775 157.032 174.55C156.495 175.174 155.845 175.486 155.082 175.486ZM155.303 174.55C155.615 174.55 155.914 174.472 156.2 174.316C156.495 174.16 156.737 173.952 156.928 173.692V172.171C155.992 172.206 155.32 172.331 154.913 172.548C154.514 172.756 154.315 173.098 154.315 173.575C154.315 173.904 154.402 174.151 154.575 174.316C154.757 174.472 155 174.55 155.303 174.55ZM159.833 165.606H161.003V171.859L163.343 168.986H164.773L162.238 171.95L164.838 175.356H163.408L161.003 172.119V175.356H159.833V165.606ZM167.623 175.07L164.971 168.986H166.271L168.26 173.718L170.054 168.986H171.354L167.454 178.502H166.154L167.623 175.07ZM175.157 168.986H176.119L176.262 170.039C176.591 169.632 176.903 169.333 177.198 169.142C177.501 168.951 177.817 168.856 178.147 168.856C178.251 168.856 178.35 168.869 178.446 168.895L178.329 170.182C178.216 170.156 178.086 170.143 177.939 170.143C177.618 170.143 177.315 170.217 177.029 170.364C176.743 170.503 176.535 170.667 176.405 170.858V175.356H175.157V168.986ZM182.16 175.486C181.432 175.486 180.808 175.339 180.288 175.044C179.777 174.741 179.387 174.333 179.118 173.822C178.849 173.311 178.715 172.743 178.715 172.119C178.715 171.521 178.836 170.975 179.079 170.481C179.33 169.978 179.69 169.584 180.158 169.298C180.635 169.003 181.194 168.856 181.835 168.856C182.65 168.856 183.308 169.094 183.811 169.571C184.322 170.048 184.578 170.706 184.578 171.547C184.578 171.764 184.561 171.972 184.526 172.171H179.911C179.989 172.994 180.24 173.579 180.665 173.926C181.09 174.273 181.636 174.446 182.303 174.446C182.97 174.446 183.581 174.32 184.136 174.069L184.292 174.992C183.555 175.321 182.845 175.486 182.16 175.486ZM183.369 171.365C183.369 170.906 183.239 170.546 182.979 170.286C182.719 170.026 182.329 169.896 181.809 169.896C181.306 169.896 180.912 170.022 180.626 170.273C180.34 170.516 180.136 170.88 180.015 171.365H183.369ZM187.395 175.486C186.823 175.486 186.403 175.339 186.134 175.044C185.874 174.749 185.744 174.385 185.744 173.952V165.606H186.914V173.276C186.914 173.657 186.936 173.935 186.979 174.108C187.031 174.281 187.127 174.398 187.265 174.459C187.404 174.52 187.629 174.55 187.941 174.55L187.772 175.486H187.395ZM194.056 168.986V175.356H193.016L192.886 174.654C192.678 174.94 192.431 175.152 192.145 175.291C191.867 175.421 191.525 175.486 191.118 175.486C190.355 175.486 189.77 175.256 189.363 174.797C188.964 174.329 188.765 173.627 188.765 172.691V168.986H189.935V172.366C189.935 173.059 190.052 173.579 190.286 173.926C190.528 174.273 190.905 174.446 191.417 174.446C191.72 174.446 192.002 174.385 192.262 174.264C192.53 174.143 192.738 173.965 192.886 173.731V168.986H194.056Z" fill="white"/>
<path d="M12 187.288H326V219.22H12V187.288Z" fill="#F2F2F2"/>
<path d="M153.025 200.788C154.655 200.788 155.469 201.702 155.469 203.531V207.288H154.299V203.544C154.299 202.946 154.182 202.513 153.948 202.244C153.714 201.967 153.333 201.828 152.804 201.828C151.678 201.828 151.114 202.417 151.114 203.596V207.288H149.944V203.778C149.944 203.05 149.814 202.543 149.554 202.257C149.303 201.971 148.935 201.828 148.449 201.828C148.068 201.828 147.73 201.897 147.435 202.036C147.141 202.175 146.915 202.383 146.759 202.66V207.288H145.589V200.918H146.499L146.629 201.594C146.95 201.308 147.271 201.104 147.591 200.983C147.921 200.853 148.272 200.788 148.644 200.788C149.615 200.788 150.3 201.213 150.698 202.062C151.14 201.213 151.916 200.788 153.025 200.788ZM158.472 207.418C157.882 207.418 157.406 207.245 157.042 206.898C156.686 206.551 156.509 206.109 156.509 205.572C156.509 204.766 156.89 204.19 157.653 203.843C158.415 203.496 159.304 203.314 160.318 203.297C160.318 202.725 160.205 202.339 159.98 202.14C159.763 201.932 159.412 201.828 158.927 201.828C158.658 201.828 158.389 201.871 158.121 201.958C157.852 202.036 157.562 202.183 157.25 202.4L157.081 201.451C157.341 201.252 157.661 201.091 158.043 200.97C158.424 200.849 158.823 200.788 159.239 200.788C159.785 200.788 160.218 200.883 160.539 201.074C160.868 201.265 161.106 201.581 161.254 202.023C161.41 202.465 161.488 203.072 161.488 203.843V205.143C161.488 205.49 161.501 205.754 161.527 205.936C161.561 206.109 161.631 206.244 161.735 206.339C161.839 206.434 161.999 206.482 162.216 206.482H162.333L162.151 207.418H162.06C161.696 207.418 161.41 207.383 161.202 207.314C160.994 207.245 160.833 207.145 160.721 207.015C160.617 206.885 160.517 206.707 160.422 206.482C159.884 207.106 159.234 207.418 158.472 207.418ZM158.693 206.482C159.005 206.482 159.304 206.404 159.59 206.248C159.884 206.092 160.127 205.884 160.318 205.624V204.103C159.382 204.138 158.71 204.263 158.303 204.48C157.904 204.688 157.705 205.03 157.705 205.507C157.705 205.836 157.791 206.083 157.965 206.248C158.147 206.404 158.389 206.482 158.693 206.482ZM164.809 204.116L162.638 200.918H163.951L165.55 203.44L167.019 200.918H168.384L166.291 204.012L168.462 207.288H167.149L165.537 204.779L163.899 207.288H162.586L164.809 204.116ZM172.63 200.788C173.193 200.788 173.683 200.935 174.099 201.23C174.524 201.516 174.849 201.91 175.074 202.413C175.299 202.916 175.412 203.479 175.412 204.103C175.412 204.736 175.304 205.303 175.087 205.806C174.879 206.3 174.567 206.694 174.151 206.989C173.735 207.275 173.228 207.418 172.63 207.418C172.188 207.418 171.785 207.34 171.421 207.184C171.057 207.028 170.771 206.803 170.563 206.508V210.434H169.393V200.918H170.303L170.433 201.802C170.97 201.126 171.703 200.788 172.63 200.788ZM172.409 206.378C172.972 206.378 173.414 206.179 173.735 205.78C174.056 205.373 174.216 204.814 174.216 204.103C174.216 203.392 174.056 202.838 173.735 202.439C173.414 202.032 172.972 201.828 172.409 201.828C171.854 201.828 171.395 202.023 171.031 202.413C170.676 202.803 170.498 203.366 170.498 204.103C170.498 204.866 170.676 205.438 171.031 205.819C171.386 206.192 171.846 206.378 172.409 206.378ZM179.411 207.418C178.761 207.418 178.198 207.275 177.721 206.989C177.245 206.694 176.881 206.296 176.629 205.793C176.378 205.29 176.252 204.727 176.252 204.103C176.252 203.479 176.378 202.916 176.629 202.413C176.881 201.91 177.245 201.516 177.721 201.23C178.198 200.935 178.761 200.788 179.411 200.788C180.053 200.788 180.612 200.935 181.088 201.23C181.574 201.516 181.942 201.91 182.193 202.413C182.445 202.916 182.57 203.479 182.57 204.103C182.57 204.727 182.445 205.29 182.193 205.793C181.942 206.296 181.574 206.694 181.088 206.989C180.612 207.275 180.053 207.418 179.411 207.418ZM179.411 206.378C180.035 206.378 180.516 206.179 180.854 205.78C181.201 205.381 181.374 204.822 181.374 204.103C181.374 203.384 181.201 202.825 180.854 202.426C180.516 202.027 180.035 201.828 179.411 201.828C178.787 201.828 178.302 202.027 177.955 202.426C177.617 202.825 177.448 203.384 177.448 204.103C177.448 204.822 177.617 205.381 177.955 205.78C178.302 206.179 178.787 206.378 179.411 206.378ZM186.559 207.418C185.909 207.418 185.346 207.275 184.869 206.989C184.392 206.694 184.028 206.296 183.777 205.793C183.526 205.29 183.4 204.727 183.4 204.103C183.4 203.479 183.526 202.916 183.777 202.413C184.028 201.91 184.392 201.516 184.869 201.23C185.346 200.935 185.909 200.788 186.559 200.788C187.2 200.788 187.759 200.935 188.236 201.23C188.721 201.516 189.09 201.91 189.341 202.413C189.592 202.916 189.718 203.479 189.718 204.103C189.718 204.727 189.592 205.29 189.341 205.793C189.09 206.296 188.721 206.694 188.236 206.989C187.759 207.275 187.2 207.418 186.559 207.418ZM186.559 206.378C187.183 206.378 187.664 206.179 188.002 205.78C188.349 205.381 188.522 204.822 188.522 204.103C188.522 203.384 188.349 202.825 188.002 202.426C187.664 202.027 187.183 201.828 186.559 201.828C185.935 201.828 185.45 202.027 185.103 202.426C184.765 202.825 184.596 203.384 184.596 204.103C184.596 204.822 184.765 205.381 185.103 205.78C185.45 206.179 185.935 206.378 186.559 206.378ZM192.562 207.418C191.99 207.418 191.57 207.271 191.301 206.976C191.041 206.681 190.911 206.317 190.911 205.884V197.538H192.081V205.208C192.081 205.589 192.103 205.867 192.146 206.04C192.198 206.213 192.294 206.33 192.432 206.391C192.571 206.452 192.796 206.482 193.108 206.482L192.939 207.418H192.562Z" fill="#333333"/>
<circle cx="390" cy="303" r="6" fill="#C4C4C4"/>
<circle cx="406" cy="303" r="6" fill="#C4C4C4"/>
<circle cx="390" cy="303" r="6" fill="#C4C4C4"/>
<circle cx="406" cy="303" r="6" fill="#C4C4C4"/>
<circle cx="422" cy="303" r="6" fill="#C4C4C4"/>
<circle cx="438" cy="303" r="6" fill="#C4C4C4"/>
<circle cx="454" cy="303" r="6" fill="#C4C4C4"/>
<circle cx="470" cy="303" r="6" fill="#C4C4C4"/>
<circle cx="454" cy="303" r="6" fill="#C4C4C4"/>
<circle cx="470" cy="303" r="6" fill="#C4C4C4"/>
<circle cx="486" cy="303" r="6" fill="#C4C4C4"/>
<circle cx="502" cy="303" r="6" fill="#C4C4C4"/>
<circle cx="518" cy="303" r="6" fill="#C4C4C4"/>
<circle cx="534" cy="303" r="6" fill="#C4C4C4"/>
<circle cx="518" cy="303" r="6" fill="#C4C4C4"/>
<circle cx="534" cy="303" r="6" fill="#C4C4C4"/>
<circle cx="550" cy="303" r="6" fill="#C4C4C4"/>
<circle cx="566" cy="303" r="6" fill="#C4C4C4"/>
<circle cx="582" cy="303" r="6" fill="#C4C4C4"/>
<circle cx="598" cy="303" r="6" fill="#C4C4C4"/>
<circle cx="614" cy="303" r="6" fill="#C4C4C4"/>
<circle cx="598" cy="303" r="6" fill="#C4C4C4"/>
<circle cx="614" cy="303" r="6" fill="#C4C4C4"/>
<circle cx="630" cy="303" r="6" fill="#C4C4C4"/>
<circle cx="646" cy="303" r="6" fill="#C4C4C4"/>
<circle cx="662" cy="303" r="6" fill="#C4C4C4"/>
<circle cx="678" cy="303" r="6" fill="#C4C4C4"/>
<circle cx="662" cy="303" r="6" fill="#C4C4C4"/>
<circle cx="678" cy="303" r="6" fill="#C4C4C4"/>
<line x1="325.568" y1="218.748" x2="381.568" y2="122.748" stroke="#8C1515"/>
<line x1="326" y1="91.5" x2="382" y2="91.5" stroke="#8C1515"/>
</svg>
